<svg xmlns="http://www.w3.org/2000/svg" xmlns:xlink="http://www.w3.org/1999/xlink" width="46.532" height="59.159" viewBox="0 0 46.532 59.159"><defs><clipPath id="a"><rect width="46.532" height="59.159" fill="#3676bc"/></clipPath></defs><g transform="translate(0 0)"><g transform="translate(0 0)" clip-path="url(#a)"><path d="M11.4,37.825H8.744V28.633A14.134,14.134,0,0,1,10,22.755l2.463.995A11.515,11.515,0,0,0,11.4,28.633Z" transform="translate(2.868 7.463)" fill="#3676bc"/><path d="M26.528,32.795H23.872v-4.13A10.989,10.989,0,0,0,22.738,23.7l2.442-1.044a13.572,13.572,0,0,1,1.348,6.009Z" transform="translate(7.457 7.43)" fill="#3676bc"/><path d="M21.092,44.529a2.15,2.15,0,0,1-1.6-.6,2.581,2.581,0,0,1-.57-2l0-.288V35.536c0-3.443,3.378-6.245,7.531-6.245s7.533,2.8,7.533,6.245l0,6.393a2.581,2.581,0,0,1-.571,2,2.145,2.145,0,0,1-1.6.6,1.329,1.329,0,0,1-.487-2.564l0-.321V35.536c0-1.979-2.188-3.589-4.878-3.589s-4.875,1.611-4.875,3.589l-.005,6.445a1.336,1.336,0,0,1,.821,1.219,1.308,1.308,0,0,1-1.3,1.329" transform="translate(6.203 9.606)" fill="#3676bc"/><path d="M11.039,43.59a5.243,5.243,0,1,1,5.241-5.243,5.249,5.249,0,0,1-5.241,5.243m0-7.831a2.588,2.588,0,1,0,2.586,2.588,2.591,2.591,0,0,0-2.586-2.588" transform="translate(1.901 10.857)" fill="#3676bc"/><path d="M20.892,27.323A13.661,13.661,0,1,1,34.555,13.662,13.675,13.675,0,0,1,20.892,27.323m0-24.667A11.005,11.005,0,1,0,31.9,13.662,11.017,11.017,0,0,0,20.892,2.656" transform="translate(2.372 0)" fill="#3676bc"/><path d="M45.2,51.942a1.328,1.328,0,0,1-1.328-1.328V40.244c0-10.138-3.817-14.815-12.735-15.544l-7.02,5.928a1.328,1.328,0,0,1-1.714,0L15.392,24.7c-8.92.729-12.736,5.407-12.736,15.544v10.33a1.328,1.328,0,0,1-2.656,0V40.244C0,28.484,5.005,22.69,15.752,22.011a1.292,1.292,0,0,1,.94.311l6.572,5.552,6.576-5.552a1.312,1.312,0,0,1,.94-.311c10.746.679,15.751,6.472,15.751,18.233v10.37A1.328,1.328,0,0,1,45.2,51.942" transform="translate(0 7.217)" fill="#3676bc"/></g></g></svg>