<svg xmlns="http://www.w3.org/2000/svg" width="56.312" height="56.312" viewBox="0 0 56.312 56.312"><g transform="translate(1.125 1.125)"><g transform="translate(0 22.205)"><path d="M535.447,257.52h0a4.845,4.845,0,0,1-6.832,0l-22.206-22.206a4.845,4.845,0,0,1,0-6.832h0a4.844,4.844,0,0,1,6.833,0l22.205,22.205A4.844,4.844,0,0,1,535.447,257.52Z" transform="translate(-505 -227.073)" fill="none" stroke="#3676bc" stroke-linecap="round" stroke-linejoin="round" stroke-width="2.25"/><path d="M526.72,253.96a7.268,7.268,0,0,1-10.249,0l-8.541-8.541a7.268,7.268,0,0,1,0-10.249Z" transform="translate(-504.814 -225.22)" fill="none" stroke="#3676bc" stroke-linecap="round" stroke-linejoin="round" stroke-width="2.25"/><path d="M517.486,253.066a7.247,7.247,0,0,1-10.249-10.249Z" transform="translate(-504.974 -223.472)" fill="none" stroke="#3676bc" stroke-linecap="round" stroke-linejoin="round" stroke-width="2.25"/></g><g transform="translate(22.205)"><path d="M553.52,239.447h0a4.845,4.845,0,0,0,0-6.832l-22.206-22.206a4.845,4.845,0,0,0-6.832,0h0a4.844,4.844,0,0,0,0,6.833l22.205,22.205A4.844,4.844,0,0,0,553.52,239.447Z" transform="translate(-523.073 -209)" fill="none" stroke="#3676bc" stroke-linecap="round" stroke-linejoin="round" stroke-width="2.25"/><path d="M549.96,230.72a7.268,7.268,0,0,0,0-10.249l-8.541-8.541a7.268,7.268,0,0,0-10.249,0Z" transform="translate(-521.22 -208.814)" fill="none" stroke="#3676bc" stroke-linecap="round" stroke-linejoin="round" stroke-width="2.25"/><path d="M549.066,221.486a7.247,7.247,0,0,0-10.249-10.249Z" transform="translate(-519.472 -208.974)" fill="none" stroke="#3676bc" stroke-linecap="round" stroke-linejoin="round" stroke-width="2.25"/></g><rect width="21.741" height="7.247" transform="translate(16.782 32.155) rotate(-45)" fill="none" stroke="#3676bc" stroke-linecap="round" stroke-linejoin="round" stroke-width="2.25"/></g></svg>