<svg xmlns="http://www.w3.org/2000/svg" width="72.414" height="62.778" viewBox="0 0 72.414 62.778"><g transform="translate(1.263 1.25)"><path d="M263.2,49.357,255.362,29.2,251.4,48.815l1.444-.1-3.6,14.824,6.332-.5.293,3.8A35.049,35.049,0,0,0,240.6,82.544c-.8,1.8.541,2.148,1.19,2.143h67.224c.572,0,1.7-.624.99-2.061a36.8,36.8,0,0,0-28.649-19.934L279.8,57.536l1.548-.01L272.4,24.409l-5.857,20.626,1.549.022-5.021,18.813" transform="translate(-240.354 -24.409)" fill="none" stroke="#3676bc" stroke-linecap="round" stroke-linejoin="round" stroke-width="2.5"/><path d="M284.994,63.237c.2.361-.077.948-.373,1.5-.94,1.776-4.707,1.647-5.538,4.273-.839,2.665,2.225,3.46.141,6.657-2.184,3.356-12.051,4.954-13.757,8.87" transform="translate(-240.282 -24.298)" fill="none" stroke="#3676bc" stroke-linejoin="round" stroke-width="2.5"/><path d="M279.95,84.546c.465-3.36,5.616-5.014,6.214-8.709.564-3.47-2.185-4.363-1.458-6.591.572-1.747,4.15-1.17,3.875-5.013" transform="translate(-240.241 -24.295)" fill="none" stroke="#3676bc" stroke-linejoin="round" stroke-width="2.5"/></g></svg>