<svg xmlns="http://www.w3.org/2000/svg" width="58.736" height="56.477" viewBox="0 0 58.736 56.477"><path d="M133.437,376.2a2.244,2.244,0,0,1,1.377,2.083v.481A5.658,5.658,0,0,0,130.3,384.3c0,3.864,2.427,6.777,5.648,6.777s5.648-2.913,5.648-6.777a5.658,5.658,0,0,0-4.518-5.534v-.481a4.5,4.5,0,0,0-2.768-4.169,16.158,16.158,0,0,0-6.22-1.111,16.494,16.494,0,0,0-6.293,1.123A4.5,4.5,0,0,0,119,378.3v4.865a1.13,1.13,0,0,0,2.259,0V378.3a2.248,2.248,0,0,1,1.394-2.089,14.235,14.235,0,0,1,5.431-.953A13.887,13.887,0,0,1,133.437,376.2Zm5.9,8.1c0,2.617-1.425,4.518-3.389,4.518s-3.389-1.9-3.389-4.518a3.389,3.389,0,0,1,6.777,0Z" transform="translate(-119 -342.503)" fill="#3676bc"/><path d="M170.822,374.111A16.158,16.158,0,0,0,164.6,373a16.494,16.494,0,0,0-6.293,1.123,4.5,4.5,0,0,0-2.791,4.178v.461A5.658,5.658,0,0,0,151,384.3c0,3.864,2.427,6.777,5.648,6.777s5.648-2.913,5.648-6.777a5.658,5.658,0,0,0-4.518-5.534V378.3a2.248,2.248,0,0,1,1.394-2.089,14.235,14.235,0,0,1,5.431-.953,13.887,13.887,0,0,1,5.353.939,2.244,2.244,0,0,1,1.377,2.083v4.885a1.13,1.13,0,0,0,2.259,0v-4.885A4.5,4.5,0,0,0,170.822,374.111ZM160.036,384.3c0,2.617-1.425,4.518-3.389,4.518s-3.389-1.9-3.389-4.518a3.389,3.389,0,0,1,6.777,0Z" transform="translate(-114.855 -342.503)" fill="#3676bc"/><path d="M134.648,358.425c3.22,0,5.648-2.913,5.648-6.777a5.648,5.648,0,1,0-11.3,0C129,355.512,131.427,358.425,134.648,358.425Zm0-10.166a3.393,3.393,0,0,1,3.389,3.389c0,2.617-1.425,4.518-3.389,4.518s-3.389-1.9-3.389-4.518A3.393,3.393,0,0,1,134.648,348.259Z" transform="translate(-117.705 -346)" fill="#3676bc"/><path d="M156.648,358.425c3.22,0,5.648-2.913,5.648-6.777a5.648,5.648,0,0,0-11.3,0C151,355.512,153.427,358.425,156.648,358.425Zm0-10.166a3.393,3.393,0,0,1,3.389,3.389c0,2.617-1.425,4.518-3.389,4.518s-3.389-1.9-3.389-4.518A3.393,3.393,0,0,1,156.648,348.259Z" transform="translate(-114.855 -346)" fill="#3676bc"/><path d="M141.3,390.111a16.157,16.157,0,0,0-6.22-1.111,16.494,16.494,0,0,0-6.293,1.123A4.5,4.5,0,0,0,126,394.3v1.476a1.13,1.13,0,0,0,2.259,0V394.3a2.248,2.248,0,0,1,1.394-2.088,14.235,14.235,0,0,1,5.431-.953,13.887,13.887,0,0,1,5.353.939,2.243,2.243,0,0,1,1.377,2.083v1.5a1.13,1.13,0,0,0,2.259,0v-1.5A4.5,4.5,0,0,0,141.3,390.111Z" transform="translate(-118.093 -340.43)" fill="#3676bc"/><path d="M163.3,390.111a16.157,16.157,0,0,0-6.22-1.111,16.494,16.494,0,0,0-6.293,1.123A4.5,4.5,0,0,0,148,394.3v1.476a1.13,1.13,0,0,0,2.259,0V394.3a2.248,2.248,0,0,1,1.394-2.088,14.235,14.235,0,0,1,5.431-.953,13.887,13.887,0,0,1,5.353.939,2.243,2.243,0,0,1,1.377,2.083v1.5a1.13,1.13,0,0,0,2.259,0v-1.5A4.5,4.5,0,0,0,163.3,390.111Z" transform="translate(-115.244 -340.43)" fill="#3676bc"/><path d="M165.794,362.762v-.481a4.5,4.5,0,0,0-2.769-4.169,16.157,16.157,0,0,0-6.22-1.111,16.484,16.484,0,0,0-6.291,1.123c-.132.054-.243.14-.367.206a13.553,13.553,0,0,1,2.409,1.476,15.463,15.463,0,0,1,4.249-.546,13.887,13.887,0,0,1,5.353.939,2.243,2.243,0,0,1,1.377,2.083v.481a5.658,5.658,0,0,0-4.518,5.534c0,3.864,2.427,6.777,5.648,6.777s5.648-2.913,5.648-6.777A5.658,5.658,0,0,0,165.794,362.762Zm-1.13,10.052c-1.963,0-3.389-1.9-3.389-4.518a3.389,3.389,0,0,1,6.777,0C168.053,370.912,166.628,372.813,164.665,372.813Z" transform="translate(-114.966 -344.575)" fill="#3676bc"/><path d="M128.777,362.762V362.3a2.248,2.248,0,0,1,1.394-2.088,14.234,14.234,0,0,1,5.431-.953,15.276,15.276,0,0,1,4.17.533,13.519,13.519,0,0,1,2.416-1.474c-.124-.066-.235-.152-.366-.207A16.157,16.157,0,0,0,135.6,357a16.5,16.5,0,0,0-6.293,1.123,4.5,4.5,0,0,0-2.791,4.178v.461A5.658,5.658,0,0,0,122,368.3c0,3.864,2.427,6.777,5.648,6.777s5.648-2.913,5.648-6.777A5.658,5.658,0,0,0,128.777,362.762Zm-1.13,10.052c-1.963,0-3.389-1.9-3.389-4.518a3.389,3.389,0,0,1,6.777,0C131.036,370.912,129.611,372.813,127.648,372.813Z" transform="translate(-118.611 -344.575)" fill="#3676bc"/><path d="M146.3,359a11.3,11.3,0,1,0,11.3,11.3A11.308,11.308,0,0,0,146.3,359Zm9.036,11.3a8.975,8.975,0,0,1-1.908,5.532l-12.66-12.662a9.021,9.021,0,0,1,14.568,7.13Zm-18.072,0a8.975,8.975,0,0,1,1.908-5.533l12.66,12.662a9.021,9.021,0,0,1-14.568-7.13Z" transform="translate(-116.928 -344.316)" fill="#3676bc"/></svg>