<svg xmlns="http://www.w3.org/2000/svg" width="76.912" height="50.913" viewBox="0 0 76.912 50.913"><g transform="translate(0 -0.001)"><g transform="translate(0 0.001)"><path d="M106.513,105.789c-.1,0-.2,0-.3-.007H83.833a1.132,1.132,0,1,1,0-2.263H106.3a4.873,4.873,0,0,0,3.477-1.278c1.587-1.438,5.441-1.62,5.875-1.636a1.132,1.132,0,0,1,.083,2.262c-1.884.069-3.875.54-4.438,1.051a7.18,7.18,0,0,1-4.78,1.87" transform="translate(-45.27 -55.071)" fill="#3676bc"/><path d="M73.432,61.175a5.131,5.131,0,0,1-1.59-10.008l7.441-2.357a5.129,5.129,0,0,1,3.175,9.754l-7.441,2.358a5.105,5.105,0,0,1-1.585.253m-.891-7.855a2.866,2.866,0,0,0,1.783,5.448l7.442-2.357a2.866,2.866,0,0,0-1.789-5.446Z" transform="translate(-37.389 -26.58)" fill="#3676bc"/><path d="M66.257,33.714a5.144,5.144,0,0,1-1.6-.256l-2.765-.876a5.129,5.129,0,1,1,3.184-9.751l2.756.873a5.131,5.131,0,0,1-1.577,10.01m-3.665-3.285,2.76.874a2.866,2.866,0,1,0,1.789-5.446l-2.756-.873a2.866,2.866,0,1,0-1.793,5.444" transform="translate(-31.944 -12.359)" fill="#3676bc"/><path d="M87.657,30.534a1.138,1.138,0,0,1-.342-.053L76.831,27.159A1.132,1.132,0,0,1,77.514,25L88,28.323a1.132,1.132,0,0,1-.341,2.211" transform="translate(-41.624 -13.657)" fill="#3676bc"/><path d="M72.145,79.7A5.131,5.131,0,0,1,70.551,69.7l.012,0,8.279-2.6a5.129,5.129,0,0,1,3.173,9.755L73.724,79.45a5.085,5.085,0,0,1-1.579.252m-.9-7.854A2.866,2.866,0,0,0,73.033,77.3l8.291-2.607a2.867,2.867,0,0,0,1.823-3.61,2.871,2.871,0,0,0-3.614-1.834Z" transform="translate(-36.683 -36.586)" fill="#3676bc"/><path d="M76.24,97.544a5.113,5.113,0,0,1-1.579-9.975l.007,0,6.654-2.126A5.129,5.129,0,0,1,84.5,95.195l-6.666,2.1a5.129,5.129,0,0,1-1.594.254m-.88-7.823a2.85,2.85,0,1,0,1.782,5.413l6.666-2.1a2.866,2.866,0,0,0-1.792-5.445Z" transform="translate(-38.932 -46.631)" fill="#3676bc"/><path d="M118.181,55.822a1.135,1.135,0,0,1-.306-.042,12.714,12.714,0,0,1-9.039-14.65l-2.906-.814a8.76,8.76,0,0,1-6.217-7.3,3.07,3.07,0,0,1,3.832-3.581l16.079,4.5a6.813,6.813,0,0,1,4.444,3.893l1.94,4.528a1.132,1.132,0,0,1-2.08.892l-1.94-4.528a4.557,4.557,0,0,0-2.973-2.606l-16.08-4.5a.805.805,0,0,0-1.005.936c0,.024.012.067.022.128a6.43,6.43,0,0,0,4.589,5.456l5.045,1.413-.333,1.19a10.445,10.445,0,0,0,7.233,12.86,1.132,1.132,0,0,1-.3,2.221" transform="translate(-54.549 -16.053)" fill="#3676bc"/><path d="M156.9,78.956a3.816,3.816,0,0,1-3.812-3.812V57.424a3.812,3.812,0,0,1,7.623,0v17.72a3.816,3.816,0,0,1-3.811,3.812m0-23.08a1.55,1.55,0,0,0-1.549,1.548v17.72a1.549,1.549,0,1,0,3.1,0V57.424a1.55,1.55,0,0,0-1.548-1.548" transform="translate(-83.799 -29.348)" fill="#3676bc"/><path d="M20.7,28.757a1.212,1.212,0,0,0-.856-1.447L10.6,24.522a1.213,1.213,0,0,0-1.505.89l-.553,2.339a1.212,1.212,0,0,0,.948,1.469l9.5,1.7a1.213,1.213,0,0,0,1.413-.912Z" transform="translate(-4.655 -13.4)" fill="#3676bc"/><path d="M55.951,40.674a1.13,1.13,0,0,1-.281-.035L21.418,31.9a1.131,1.131,0,1,1,.559-2.192l34.252,8.74a1.132,1.132,0,0,1-.279,2.228" transform="translate(-11.258 -16.242)" fill="#3676bc"/><path d="M20.644,6.971A1.131,1.131,0,0,1,19.512,5.84V1.133a1.132,1.132,0,0,1,2.263,0V5.84a1.131,1.131,0,0,1-1.132,1.132" transform="translate(-10.681 -0.001)" fill="#3676bc"/><path d="M3.172,11.4a1.131,1.131,0,0,1-1.021-.641L.112,6.515a1.131,1.131,0,0,1,2.039-.98L4.191,9.778A1.132,1.132,0,0,1,3.172,11.4" transform="translate(0 -2.679)" fill="#3676bc"/><path d="M35.65,11.4a1.132,1.132,0,0,1-1.019-1.622l2.039-4.244a1.131,1.131,0,1,1,2.039.98l-2.039,4.244a1.131,1.131,0,0,1-1.021.641" transform="translate(-18.896 -2.679)" fill="#3676bc"/></g></g></svg>