<svg xmlns="http://www.w3.org/2000/svg" xmlns:xlink="http://www.w3.org/1999/xlink" width="44.598" height="72.107" viewBox="0 0 44.598 72.107"><defs><clipPath id="a"><rect width="44.598" height="72.107" transform="translate(0 0)" fill="#3676bc"/></clipPath></defs><g transform="translate(-485.023 -2055.152)"><g transform="translate(485.023 2055.153)"><g transform="translate(0 -0.001)" clip-path="url(#a)"><path d="M17.415,234.924H4.291A4.3,4.3,0,0,1,0,230.633V199.971a4.3,4.3,0,0,1,4.291-4.291H17.415a4.3,4.3,0,0,1,4.291,4.291v30.662a4.3,4.3,0,0,1-4.291,4.291M4.291,197.73a2.244,2.244,0,0,0-2.241,2.241v30.662a2.244,2.244,0,0,0,2.241,2.241H17.415a2.244,2.244,0,0,0,2.241-2.241V199.971a2.244,2.244,0,0,0-2.241-2.241Z" transform="translate(0 -186.614)" fill="#3676bc"/><path d="M136.2,1009.917H131.07a2.324,2.324,0,0,1-2.321-2.321v-8.057a1.025,1.025,0,0,1,1.025-1.025H137.5a1.025,1.025,0,0,1,1.025,1.025v8.057a2.324,2.324,0,0,1-2.321,2.321m-5.406-9.354v7.032a.272.272,0,0,0,.271.271H136.2a.272.272,0,0,0,.271-.271v-7.032Z" transform="translate(-122.784 -952.254)" fill="#3676bc"/><path d="M213.161,1216.9a1.025,1.025,0,0,1-1.025-1.025v-14.443a1.025,1.025,0,1,1,2.05,0v14.443a1.025,1.025,0,0,1-1.025,1.025" transform="translate(-202.308 -1144.796)" fill="#3676bc"/><path d="M111.119,21.581a1.025,1.025,0,0,1-1.025-1.025V12a1.025,1.025,0,0,1,2.05,0v8.557a1.025,1.025,0,0,1-1.025,1.025" transform="translate(-104.993 -10.466)" fill="#3676bc"/><path d="M315.209,21.581a1.025,1.025,0,0,1-1.025-1.025V12a1.025,1.025,0,0,1,2.05,0v8.557a1.025,1.025,0,0,1-1.025,1.025" transform="translate(-299.628 -10.466)" fill="#3676bc"/><path d="M42.418,2.049H24.982a1.025,1.025,0,1,1,0-2.05H42.418a1.025,1.025,0,1,1,0,2.05" transform="translate(-22.847 0.001)" fill="#3676bc"/><path d="M262.056,800.495h-7.93a1.025,1.025,0,0,1,0-2.05h7.93a1.025,1.025,0,0,1,0,2.05" transform="translate(-241.375 -761.454)" fill="#3676bc"/><path d="M262.056,609.022h-7.93a1.025,1.025,0,1,1,0-2.05h7.93a1.025,1.025,0,1,1,0,2.05" transform="translate(-241.375 -578.852)" fill="#3676bc"/><path d="M573.976,1090.794h-.031a1.024,1.024,0,0,1-.789-.409l-3.96-5.28a1.025,1.025,0,1,1,1.64-1.23l3.19,4.254,11.4-13.4a1.025,1.025,0,0,1,1.562,1.328l-12.228,14.381a1.026,1.026,0,0,1-.781.361" transform="translate(-542.63 -1024.589)" fill="#3676bc"/><path d="M485.569,1170.792H469.547a1.025,1.025,0,0,1-1.025-1.025v-16.023a1.025,1.025,0,0,1,1.025-1.025h10.369a1.025,1.025,0,1,1,0,2.05h-9.344v13.973h13.973v-5.358a1.025,1.025,0,0,1,2.05,0v6.383a1.025,1.025,0,0,1-1.025,1.025" transform="translate(-446.816 -1099.316)" fill="#3676bc"/></g></g></g></svg>