<svg xmlns="http://www.w3.org/2000/svg" xmlns:xlink="http://www.w3.org/1999/xlink" width="54.866" height="77.768" viewBox="0 0 54.866 77.768"><defs><clipPath id="a"><rect width="54.866" height="77.768" fill="#3676bc"/></clipPath></defs><g clip-path="url(#a)"><path d="M123.291,391a14.5,14.5,0,1,1,14.41-14.5,14.47,14.47,0,0,1-14.41,14.5m0-26.4a11.905,11.905,0,1,0,11.818,11.905A11.875,11.875,0,0,0,123.291,364.6" transform="translate(-95.858 -318.708)" fill="#3676bc"/><path d="M170.057,391a1.292,1.292,0,0,1-.885-.349c-4.947-4.628-7.356-9.569-7.159-14.687.309-8.04,6.952-13.447,7.235-13.674a1.3,1.3,0,0,1,1.622,2.022c-.06.048-6.014,4.924-6.267,11.77-.16,4.326,1.974,8.591,6.341,12.675a1.3,1.3,0,0,1-.886,2.243" transform="translate(-142.625 -318.708)" fill="#3676bc"/><path d="M219.806,391a1.3,1.3,0,0,1-.886-2.243c4.367-4.084,6.5-8.349,6.341-12.675-.253-6.847-6.207-11.722-6.267-11.77a1.3,1.3,0,0,1,1.622-2.022c.283.226,6.926,5.634,7.235,13.674.2,5.118-2.212,10.06-7.16,14.687a1.292,1.292,0,0,1-.885.35" transform="translate(-192.373 -318.71)" fill="#3676bc"/><path d="M135.578,423.252a21.962,21.962,0,0,1-4.8-.524,18.8,18.8,0,0,1-6.87-2.937,1.3,1.3,0,0,1,1.574-2.059,16.628,16.628,0,0,0,5.986,2.494c4.982,1.081,10.151.206,15.365-2.6a1.3,1.3,0,0,1,1.23,2.282,26.13,26.13,0,0,1-12.484,3.348" transform="translate(-108.64 -367.533)" fill="#3676bc"/><path d="M147.454,506.375a1.291,1.291,0,0,1-.614-.155c-5.214-2.81-10.383-3.686-15.365-2.6a16.629,16.629,0,0,0-5.986,2.494,1.3,1.3,0,0,1-1.575-2.059,18.806,18.806,0,0,1,6.87-2.937c3.881-.87,10.03-1.085,17.286,2.824a1.3,1.3,0,0,1-.616,2.437" transform="translate(-108.647 -440.713)" fill="#3676bc"/><path d="M52.443,77.768H2.423A2.426,2.426,0,0,1,0,75.345V2.423A2.426,2.426,0,0,1,2.423,0h50.02a2.426,2.426,0,0,1,2.423,2.423V75.345a2.426,2.426,0,0,1-2.423,2.423M2.592,75.176H52.274V2.592H2.592Z" fill="#3676bc"/><path d="M53.57,269.088H1.3a1.3,1.3,0,1,1,0-2.592H53.57a1.3,1.3,0,1,1,0,2.592" transform="translate(0 -234.62)" fill="#3676bc"/><path d="M104.971,69.041a1.3,1.3,0,0,1-.92-2.21l5.006-5.039a1.3,1.3,0,1,1,1.839,1.827l-5.006,5.039a1.292,1.292,0,0,1-.92.383" transform="translate(-91.274 -54.064)" fill="#3676bc"/><path d="M53.181,137.757a1.3,1.3,0,0,1-.92-2.21l2.768-2.787a1.3,1.3,0,1,1,1.839,1.827L54.1,137.375a1.292,1.292,0,0,1-.92.383" transform="translate(-45.679 -116.544)" fill="#3676bc"/><path d="M44.328,54.42a1.3,1.3,0,0,1-.915-2.215l6.659-6.63A1.3,1.3,0,1,1,51.9,47.413l-6.659,6.63a1.292,1.292,0,0,1-.915.378" transform="translate(-37.884 -39.792)" fill="#3676bc"/><path d="M53.57,316.844H1.3a1.3,1.3,0,0,1,0-2.592H53.57a1.3,1.3,0,0,1,0,2.592" transform="translate(0 -276.664)" fill="#3676bc"/><path d="M186.336,86.634c-3.246,0-5.887-3.078-5.887-6.861s2.641-6.861,5.887-6.861,5.887,3.078,5.887,6.861-2.641,6.861-5.887,6.861m0-11.13c-1.817,0-3.3,1.915-3.3,4.269s1.478,4.269,3.3,4.269,3.295-1.915,3.295-4.269-1.478-4.269-3.295-4.269" transform="translate(-158.865 -64.191)" fill="#3676bc"/><path d="M125.886,172.894a1.3,1.3,0,0,1-1.213-1.754,7.157,7.157,0,0,1,4.662-4.331l3.229-.943a1.549,1.549,0,0,0,1.084-1.237l.27-1.66a1.3,1.3,0,0,1,2.559.416l-.27,1.66a4.154,4.154,0,0,1-2.916,3.309l-3.23.943a4.552,4.552,0,0,0-2.963,2.757,1.3,1.3,0,0,1-1.213.839" transform="translate(-109.687 -142.518)" fill="#3676bc"/><path d="M245.805,172.893a1.3,1.3,0,0,1-1.213-.839,4.552,4.552,0,0,0-2.963-2.757l-3.229-.943a4.154,4.154,0,0,1-2.916-3.309l-.27-1.66a1.3,1.3,0,1,1,2.558-.416l.27,1.66a1.549,1.549,0,0,0,1.084,1.237l3.229.943a7.157,7.157,0,0,1,4.662,4.331,1.3,1.3,0,0,1-1.213,1.754" transform="translate(-207.065 -142.518)" fill="#3676bc"/><path d="M186.48,201.511a7.936,7.936,0,0,1-5.676-2.365l.916-.917.928-.9a5.36,5.36,0,0,0,3.832,1.595h0a5.362,5.362,0,0,0,3.836-1.6,1.3,1.3,0,1,1,1.842,1.824,7.937,7.937,0,0,1-5.677,2.37Z" transform="translate(-159.178 -173.378)" fill="#3676bc"/></g></svg>