<svg xmlns="http://www.w3.org/2000/svg" xmlns:xlink="http://www.w3.org/1999/xlink" width="81.948" height="81.948" viewBox="0 0 81.948 81.948"><defs><clipPath id="a"><path d="M0,8.128H81.948V-73.82H0Z" transform="translate(0 73.82)" fill="none"/></clipPath></defs><g transform="translate(0 0)"><g clip-path="url(#a)"><g transform="translate(7.825 7.825)"><path d="M5.908,3.571v-4a1.294,1.294,0,0,0-.684-1.141L-17.366-13.668l.256-11.975A6.536,6.536,0,0,0-19-30.381a6.858,6.858,0,0,0-4.871-2.054,6.857,6.857,0,0,0-4.87,2.054,6.534,6.534,0,0,0-1.895,4.739l.171,7.967.115,4.044L-52.971-1.576a1.3,1.3,0,0,0-.686,1.143V6.713a1.3,1.3,0,0,0,.5,1.02,1.3,1.3,0,0,0,1.109.238L-36.6,4.148V5.577A1.294,1.294,0,0,0-35.3,6.871a1.3,1.3,0,0,0,1.3-1.294V3.508l3.975-.982.288,11.752-5.272,4.564a1.3,1.3,0,0,0-.447.979v6.016a1.294,1.294,0,0,0,.544,1.053,1.291,1.291,0,0,0,.752.241,1.285,1.285,0,0,0,.422-.071l9.871-3.4,5.089,1.753A16.845,16.845,0,0,0-4.192,33.864,16.853,16.853,0,0,0,12.642,17.03,16.818,16.818,0,0,0,5.908,3.571M-34.007.84V.264a1.3,1.3,0,0,0-1.3-1.3A1.294,1.294,0,0,0-36.6.263V1.481l-14.47,3.578V.344l20.776-11.073.2,10.6Zm14.035-13.769-.3,13.777h0l-.3,12.266c-.006.023-.01.048-.016.071-.021.089-.04.178-.059.268-.012.056-.026.112-.038.168-.03.15-.059.3-.087.451l-.01.063c-.023.132-.044.265-.064.4-.007.041-.012.083-.018.124-.017.112-.031.225-.044.34-.007.048-.012.1-.017.145q-.018.16-.033.32c0,.052-.01.105-.014.158-.008.1-.016.206-.022.31,0,.056-.008.11-.01.165-.007.1-.01.208-.014.312,0,.053,0,.105-.006.159,0,.132-.006.265-.007.4v.084c0,.191,0,.38.011.569,0,.042,0,.085,0,.129q.027.626.1,1.241v.006a16.7,16.7,0,0,0,.683,3.156l.009.029-3.234-1.113a1.293,1.293,0,0,0-.844,0l-8.577,2.954V20.411l5.286-4.576a1.294,1.294,0,0,0,.446-1.01L-27.482.849h0l-.26-13.739V-12.9s0,0,0-.006l-.139-4.837-.17-7.958a3.962,3.962,0,0,1,1.156-2.872,4.256,4.256,0,0,1,3.019-1.276,4.257,4.257,0,0,1,3.021,1.276A3.962,3.962,0,0,1-19.7-25.7Zm2.544,2.165L3.318.342V1.96A16.673,16.673,0,0,0-1.531.407L-1.663.386C-1.75.373-1.837.361-1.924.35L-2.131.322-2.355.3-2.606.271-2.8.254-3.094.233c-.054,0-.108-.008-.162-.01C-3.375.216-3.495.211-3.615.208l-.1,0C-3.875.2-4.033.2-4.192.2c-.222,0-.443.006-.664.014A16.624,16.624,0,0,0-10.835,1.56l-.317-.079V.264a1.3,1.3,0,0,0-1.294-1.3,1.3,1.3,0,0,0-1.3,1.3V.84l-3.913-.968Zm-.29,13.289,3.628.9a16.99,16.99,0,0,0-3.741,3.752ZM-4.192,31.274a14.267,14.267,0,0,1-13.358-9.3c-.013-.036-.027-.071-.039-.105-.026-.071-.051-.142-.075-.214s-.054-.161-.08-.241c-.012-.037-.024-.072-.036-.109a14.245,14.245,0,0,1-.593-2.944c0-.018,0-.037-.006-.056q-.015-.172-.027-.343l-.007-.1q-.008-.152-.013-.3c0-.04,0-.08,0-.12,0-.12-.006-.241-.006-.361,0-.016,0-.03,0-.046s0-.034,0-.052c0-.117,0-.232,0-.349,0-.047,0-.094.006-.141,0-.089.008-.178.012-.266l.01-.149c.006-.088.012-.177.02-.264,0-.047.008-.094.012-.141.009-.094.019-.188.03-.282l.013-.121c.016-.121.032-.242.05-.362,0-.013,0-.026.006-.038.02-.129.041-.256.064-.383.01-.058.022-.113.032-.17s.028-.14.042-.209.03-.14.046-.209c.011-.052.023-.1.036-.157A14.279,14.279,0,0,1-5.654,2.861l.042,0,.31-.028.13-.008.229-.016.285-.011.081,0c.129,0,.256,0,.385,0,.165,0,.33,0,.493.009l.1,0c.157.006.314.014.471.026l.019,0c.155.011.311.027.466.043l.144.017c.12.014.239.03.357.047l.18.028c.115.018.23.038.343.059l.224.042.2.042c.164.036.327.073.49.114l.08.02c.108.028.214.057.321.087l.013,0a14.268,14.268,0,0,1,10.339,13.7A14.26,14.26,0,0,1-4.192,31.274" transform="translate(53.657 32.435)" fill="#3676bc"/></g><g transform="translate(24.886 35.477)"><path d="M.128,0A1.294,1.294,0,0,0-1.166,1.294v.031a1.294,1.294,0,1,0,2.589,0V1.294A1.294,1.294,0,0,0,.128,0" transform="translate(1.166)" fill="#2b79c1"/></g><g transform="translate(47.74 35.477)"><path d="M.128,0A1.294,1.294,0,0,0-1.166,1.294v.031a1.294,1.294,0,1,0,2.589,0V1.294A1.294,1.294,0,0,0,.128,0" transform="translate(1.166)" fill="#2b79c1"/></g><g transform="translate(55.996 61.93)"><path d="M.128,0A1.294,1.294,0,0,0-1.166,1.294v.041a1.294,1.294,0,1,0,2.589,0V1.294A1.294,1.294,0,0,0,.128,0" transform="translate(1.166)" fill="#2b79c1"/></g><g transform="translate(55.995 50.018)"><path d="M.128,0A1.294,1.294,0,0,0-1.166,1.294V9.369a1.294,1.294,0,1,0,2.589,0V1.294A1.294,1.294,0,0,0,.128,0" transform="translate(1.166)" fill="#2b79c1"/></g></g></g></svg>