<svg xmlns="http://www.w3.org/2000/svg" width="55.987" height="55.985" viewBox="0 0 55.987 55.985"><path d="M71.352,174.958a1.12,1.12,0,0,0,1.12-1.12v-4.479A3.363,3.363,0,0,0,69.113,166H57.152a7.9,7.9,0,0,0-3.284.721l-13.217,6.1a1.12,1.12,0,0,0,.938,2.033l13.217-6.1a5.637,5.637,0,0,1,2.346-.515H69.113a1.122,1.122,0,0,1,1.12,1.12v3.359H55.676a1.111,1.111,0,0,0-.469.1L40.651,179.54a1.12,1.12,0,0,0,.938,2.033l14.334-6.615Z" transform="translate(-40 -166)" fill="#3676bc"/><path d="M55,180.12v12.317a1.12,1.12,0,1,0,2.239,0V180.12a1.12,1.12,0,0,0-2.239,0Z" transform="translate(-38.204 -164.444)" fill="#3676bc"/><path d="M59,180.12v8.958a1.12,1.12,0,1,0,2.239,0V180.12a1.12,1.12,0,0,0-2.239,0Z" transform="translate(-37.725 -164.444)" fill="#3676bc"/><path d="M63,180.12V184.6a1.12,1.12,0,1,0,2.239,0V180.12a1.12,1.12,0,0,0-2.239,0Z" transform="translate(-37.246 -164.444)" fill="#3676bc"/><path d="M93.789,209.514H87.934a5.589,5.589,0,0,0-2.08.4l-2.795,1.119a10.037,10.037,0,0,1-3.743.721h-19a1.215,1.215,0,0,1-1.224-.924,1.123,1.123,0,0,1,1.1-1.316H70.275a1.12,1.12,0,1,0,0-2.239H54.6a1.12,1.12,0,1,1,0-2.239H69.155a1.12,1.12,0,0,0,0-2.239h-16.8a1.12,1.12,0,0,1,0-2.239h16.8a1.12,1.12,0,0,0,0-2.239H54.6a1.12,1.12,0,1,1,0-2.239H74.754a1.1,1.1,0,0,0,.39-.078,1.153,1.153,0,0,0,.106-.05,1.074,1.074,0,0,0,.509-.516c.008-.017.02-.029.028-.047l0-.007a1.027,1.027,0,0,0,.038-.2,1.052,1.052,0,0,0,.045-.222v-.008a1.132,1.132,0,0,0-.082-.4,1.153,1.153,0,0,0-.1-.159,1.019,1.019,0,0,0-.514-.462l-.006,0-8.728-3.545a1.12,1.12,0,0,1,.2-2.105,2.687,2.687,0,0,1,1.3.237,41.511,41.511,0,0,0,9.045,1.864,3.317,3.317,0,0,1,1.42.49l.254.159.006,0,6.722,4.2a5.593,5.593,0,0,0,2.966.851h5.434a1.12,1.12,0,0,0,0-2.239H88.355a3.361,3.361,0,0,1-1.78-.511l-2.451-1.533a5.433,5.433,0,0,0,1.71-.389l8.361-3.243a1.12,1.12,0,0,0-.811-2.087l-8.392,3.256a3.342,3.342,0,0,1-1.84.225L79.657,189l-.064-.04a5.542,5.542,0,0,0-2.372-.817,38.9,38.9,0,0,1-8.441-1.713,4.811,4.811,0,0,0-2.626-.347,3.331,3.331,0,0,0-2.486,4.1,4.426,4.426,0,0,0-2.143.683,3.38,3.38,0,0,0-1.368,2.97H54.6a3.348,3.348,0,0,0-3.113,4.609,3.341,3.341,0,0,0,0,6.459,3.315,3.315,0,0,0,.843,3.711,3.351,3.351,0,0,0,2.275,5.82,3.409,3.409,0,0,0,.449-.045,3.355,3.355,0,0,0,4.67,3.025l2.255-.957a3.271,3.271,0,0,0,3.361,3.131,3.563,3.563,0,0,0,1.4-.284l12.517-5.313h.062a12.267,12.267,0,0,0,4.575-.881l2.795-1.117a3.334,3.334,0,0,1,1.249-.241h5.855a1.12,1.12,0,0,0,0-2.239ZM62.4,193.762a1.111,1.111,0,0,1,.433-1.072,2.713,2.713,0,0,1,1.288-.288c.363-.007.785-.04,1.234-.088.068.037.131.082.2.115l3.468,1.409H62.43C62.422,193.81,62.4,193.791,62.4,193.762Zm-8.828,17.753a1.118,1.118,0,0,1,.593-1.468l1.254-.533h1.633a3.37,3.37,0,0,0-.165,1.676c.007.041.022.079.031.121l-1.878.8A1.124,1.124,0,0,1,53.569,211.515Zm5.28,3.841a1.119,1.119,0,1,1-.876-2.06l.149-.064a3.568,3.568,0,0,0,2.2.761h1.742Zm7.014,1.889a1.211,1.211,0,0,1-1.487-.373,1.122,1.122,0,0,1,.5-1.643h0l2.914-1.236h5.732Z" transform="translate(-38.922 -163.605)" fill="#3676bc"/></svg>