<svg xmlns="http://www.w3.org/2000/svg" width="57.815" height="57.801" viewBox="0 0 57.815 57.801"><path d="M1060.832,2012.073a28.914,28.914,0,1,0,8.469,20.445A28.947,28.947,0,0,0,1060.832,2012.073Zm-39.12,1.771a26.441,26.441,0,0,1,36.442-.864l-37.306,37.306A26.442,26.442,0,0,1,1021.712,2013.844Zm32.816,6.3a9.783,9.783,0,0,1,1.8,2.617c-.462,1.416-4.942,7.44-13.062,8.645Zm-31.909,31.909,17.933-17.933a21.345,21.345,0,0,0,13.467-4.816c2.665-2.171,4.834-5.107,4.834-6.546,0-1.1-1.219-2.9-2.554-4.384l3.626-3.626a26.463,26.463,0,0,1,4.706,28.271l-9.623-9.681a4.248,4.248,0,0,0-3.02-1.252h0a4.269,4.269,0,0,0-4.028,2.857,4.281,4.281,0,0,0-3.025-.652,4.258,4.258,0,0,0-3.537,3.519,4.075,4.075,0,0,0-.057.7,1.8,1.8,0,0,1-.884,3.342,4.271,4.271,0,0,0,0,6.04l2.1,2.1a4.244,4.244,0,0,0-1.365.833c-.054.048-.106.1-.152.145a4.269,4.269,0,0,0,0,6.04l1.937,1.782A26.375,26.375,0,0,1,1022.619,2052.056Zm22.69.684,4.437,4.472a26.411,26.411,0,0,1-4.544,1.262l.521-.566-2.925-2.689a1.765,1.765,0,0,1,.014-2.483c.013-.013.027-.028.042-.041l.017-.015a1.735,1.735,0,0,1,.819-.419h.407l.037-.036A1.774,1.774,0,0,1,1045.309,2052.74Zm13.752-1.548a26.309,26.309,0,0,1-6.854,4.943l-5.123-5.163-.889.882.885-.885-4.851-4.851a1.756,1.756,0,0,1-.519-1.251,1.759,1.759,0,0,1,1.466-1.737,1.767,1.767,0,0,1,1.332.316l10.19,10.19,1.771-1.771-10.261-10.261-1.846-1.846a1.763,1.763,0,0,1-.519-1.261,1.635,1.635,0,0,1,.024-.282,1.754,1.754,0,0,1,1.459-1.449,1.773,1.773,0,0,1,1.532.5l1.506,1.506,0,0,11.012,11.012,1.771-1.771-10.4-10.4,0,0a1.775,1.775,0,0,1-.5-1.536,1.734,1.734,0,0,1,.491-.962,1.768,1.768,0,0,1,2.5,0l10.223,10.285A26.533,26.533,0,0,1,1059.061,2051.193Z" transform="translate(-1011.486 -2003.618)" fill="#3676bc"/><path d="M1235.824,2123.35a7.834,7.834,0,0,0,0,15.667v-2.5a5.33,5.33,0,1,1,5.22-5.329h2.5A7.789,7.789,0,0,0,1235.824,2123.35Z" transform="translate(-1207.639 -2112.041)" fill="#3676bc"/><path d="M1125.663,2102.891a21.376,21.376,0,0,0,10.374,5.367l.5-2.455c-7.585-1.533-11.632-7.175-12.058-8.478.507-1.568,5.995-8.86,15.943-8.86a18.725,18.725,0,0,1,10.778,3.3l1.415-2.066a21.713,21.713,0,0,0-25.826,1.076c-2.665,2.171-4.833,5.107-4.833,6.547C1121.952,2098.695,1123.819,2101.161,1125.663,2102.891Z" transform="translate(-1111.518 -2078.183)" fill="#3676bc"/></svg>