<svg xmlns="http://www.w3.org/2000/svg" width="57.781" height="57.781" viewBox="0 0 57.781 57.781"><path d="M337.781,88.712c-3.295,0-5.778-2.981-5.778-6.934A5.785,5.785,0,0,1,337.781,76v2.311a3.471,3.471,0,0,0-3.467,3.467c0,2.679,1.458,4.623,3.467,4.623Zm0,20.8H335.47v23.112h2.311Zm-41.6-27.735a5.778,5.778,0,0,0-11.556,0c0,3.952,2.483,6.934,5.778,6.934S296.179,85.73,296.179,81.778Zm-2.311,0c0,2.679-1.458,4.623-3.467,4.623s-3.467-1.944-3.467-4.623a3.467,3.467,0,1,1,6.934,0Zm-2.311,27.735h-2.311v23.112h2.311Zm46.225,21.957h-4.623v-20.8A1.155,1.155,0,0,0,332,109.513a2.314,2.314,0,0,1-2.311-2.311V93.574a1.149,1.149,0,0,1,.669-1.05,17.957,17.957,0,0,1,7.371-1.5V88.712a20.267,20.267,0,0,0-8.319,1.7,3.461,3.461,0,0,0-2.032,3.157V107.2a4.632,4.632,0,0,0,3.467,4.477v20.947A1.155,1.155,0,0,0,332,133.781h5.778ZM307.4,103.4a1.154,1.154,0,0,0,0-1.634l-2.65-2.65,2.65-2.65a1.155,1.155,0,1,0-1.634-1.634L302.3,98.3a1.154,1.154,0,0,0,0,1.634l3.467,3.467a1.155,1.155,0,0,0,1.634,0Zm-10.062,29.229V111.679A4.632,4.632,0,0,0,300.8,107.2V93.586a3.463,3.463,0,0,0-2.051-3.166,20.8,20.8,0,0,0-8.4-1.708,20.267,20.267,0,0,0-8.319,1.7A3.461,3.461,0,0,0,280,93.574V107.2a4.632,4.632,0,0,0,3.467,4.477v20.947a1.155,1.155,0,0,0,1.156,1.156h11.556A1.155,1.155,0,0,0,297.334,132.626Zm-11.556-21.957a1.155,1.155,0,0,0-1.156-1.156,2.314,2.314,0,0,1-2.311-2.311V93.574a1.149,1.149,0,0,1,.669-1.05,17.957,17.957,0,0,1,7.371-1.5,18.46,18.46,0,0,1,7.462,1.509,1.148,1.148,0,0,1,.677,1.054V107.2a2.314,2.314,0,0,1-2.311,2.311,1.155,1.155,0,0,0-1.156,1.156v20.8h-9.245Zm36.641-7.272,3.467-3.467a1.154,1.154,0,0,0,0-1.634l-3.467-3.467a1.155,1.155,0,1,0-1.634,1.634l2.65,2.65-2.65,2.65a1.155,1.155,0,1,0,1.634,1.634Zm-13.529-5.439a1.156,1.156,0,1,0,1.156,1.156A1.156,1.156,0,0,0,308.891,97.957Zm3.467,0a1.156,1.156,0,1,0,1.156,1.156A1.156,1.156,0,0,0,312.357,97.957Zm6.934,0a1.156,1.156,0,1,0,1.156,1.156A1.156,1.156,0,0,0,319.291,97.957Zm-3.467,0a1.156,1.156,0,1,0,1.156,1.156A1.156,1.156,0,0,0,315.824,97.957Z" transform="translate(-280 -76)" fill="#3676bc"/></svg>