<svg xmlns="http://www.w3.org/2000/svg" xmlns:xlink="http://www.w3.org/1999/xlink" width="198.128" height="27.211" viewBox="0 0 198.128 27.211"><defs><linearGradient id="a" x1="4.013" y1="1.962" x2="4.013" y2="0.962" gradientUnits="objectBoundingBox"><stop offset="0" stop-color="#1065b0"/><stop offset="0.06" stop-color="#0e6ab4"/><stop offset="0.445" stop-color="#0689cd"/><stop offset="0.772" stop-color="#019cdc"/><stop offset="1" stop-color="#00a3e2"/></linearGradient><linearGradient id="b" x1="0.5" y1="0" x2="0.5" y2="1.011" xlink:href="#a"/></defs><g transform="translate(-28.81 -54.623)"><path d="M71.389,54.683,60.438,78.19c-1.45,2.967-2.271,2.967-3.372,2.967H48.215L59.166,57.649c1.45-2.966,2.271-2.966,3.372-2.966h8.867" transform="translate(-2.363 -0.007)" fill="#1065b0"/><path d="M87.356,81.157,76.4,57.649c-1.449-2.966-2.273-2.966-3.374-2.966h-8.85L75.132,78.191c1.449,2.965,2.271,2.965,3.371,2.965h8.869" transform="translate(-4.31 -0.007)" opacity="0.8" fill="url(#a)"/><path d="M35.279,62.083h0l7.5,16.106c1.448,2.965,2.271,2.965,3.369,2.965H55L44.053,57.648c-1.448-2.967-2.27-2.967-3.371-2.967H28.81a7.023,7.023,0,0,1,4.907,4.065Z" transform="translate(0 -0.007)" opacity="0.8" fill="url(#b)"/><path d="M216.783,82.077h2.442l9.254-19.857H224.1l-7.082,15.2-7.083-15.2h-4.381l8.057,17.289C214.937,82.07,215.734,82.077,216.783,82.077Z" transform="translate(-21.545 -0.926)" fill="#003a6c"/><path d="M216.933,84.832" transform="translate(-22.932 -3.683)" fill="#fff" opacity="0.8"/><path d="M247.745,62.086v1.967a5.686,5.686,0,0,0-1.668-1.605,9.119,9.119,0,0,0-4.179-1.025c-5.422,0-9.818,4.742-9.818,10.591S236.477,82.6,241.9,82.6a9.113,9.113,0,0,0,4.22-1.058,5.677,5.677,0,0,0,1.607-1.571v1.969h3.991V62.086Zm-5.848,17c-3.294,0-5.963-3.166-5.963-7.073s2.669-7.072,5.963-7.072,5.968,3.166,5.968,7.072S245.195,79.087,241.9,79.087Z" transform="translate(-24.779 -0.829)" fill="#003a6c"/><path d="M103.642,82.077h2.447l9.255-19.857h-4.383l-7.081,15.2L96.8,62.22H92.416l8.057,17.289C101.8,82.07,102.595,82.077,103.642,82.077Z" transform="translate(-7.754 -0.926)" fill="#003a6c"/><path d="M103.792,84.832" transform="translate(-9.14 -3.683)" fill="#fff" opacity="0.8"/><path d="M151.807,77.589c-.889-.416-1.579-.742-1.76-3.154-.006-.1-.011-.195-.015-.3-.005-.072-.011-.141-.014-.214l0-19.3h-4V74.574c0,2.61.71,5.032,3.543,6.493l1.619.767,1.74-3.728C152.321,77.829,151.9,77.634,151.807,77.589Z" transform="translate(-14.288)" fill="#003a6c"/><path d="M134.606,62.086v1.967a5.7,5.7,0,0,0-1.668-1.605,9.117,9.117,0,0,0-4.177-1.025c-5.423,0-9.82,4.742-9.82,10.591s4.4,10.591,9.82,10.591a9.12,9.12,0,0,0,4.221-1.058,5.677,5.677,0,0,0,1.607-1.571v1.969h3.989V62.086Zm-5.847,17c-3.3,0-5.965-3.166-5.965-7.073s2.669-7.072,5.965-7.072,5.966,3.166,5.966,7.072S132.054,79.087,128.759,79.087Z" transform="translate(-10.987 -0.829)" fill="#003a6c"/><path d="M175.776,64.953c-1.04-2.063-3.336-3.53-8.02-3.53a9.115,9.115,0,0,0-4.178,1.025,20.234,20.234,0,0,0-2.2,1.605V62.111h-3.973v.005h0V81.959h3.956V71.13c0-4.977,3.37-6.4,5.657-6.587.123-.008.244-.016.371-.019.06,0,.119-.006.176-.006.214,0,.417.007.615.018.084.005.169.011.25.019.155.012.309.025.452.044a4.121,4.121,0,0,1,3.595,3.4c.023.133.038.27.055.41a5.6,5.6,0,0,1,.06.712c.009.2.012.4.012.608V81.959h3.951V68.433A7.252,7.252,0,0,0,175.776,64.953Z" transform="translate(-15.676 -0.829)" fill="#003a6c"/><path d="M157.554,71.763" transform="translate(-15.694 -2.089)" fill="#003a6c"/><path d="M197.544,77.114a6.233,6.233,0,0,1-4.937,1.966c.5,0,.818,0-.012,0-1.992,0-.795,0-.01,0-3.469-.007-5.4-2.784-5.8-5.879l11.622-.009h3.938a11.006,11.006,0,0,0-4.334-10.043,9.336,9.336,0,0,0-11.443.486,11.186,11.186,0,0,0-3.129,12.2,9.969,9.969,0,0,0,9.152,6.772,9.374,9.374,0,0,0,6.37-2.436Zm-4.949-12.2c3.137,0,5.014,2.264,5.644,4.979H186.947C187.576,67.177,189.456,64.915,192.595,64.913Z" transform="translate(-18.77 -0.829)" fill="#003a6c"/></g></svg>