<svg xmlns="http://www.w3.org/2000/svg" xmlns:xlink="http://www.w3.org/1999/xlink" width="65.816" height="73" viewBox="0 0 65.816 73"><defs><clipPath id="a"><rect width="27.816" height="46.451" fill="#3676bc"/></clipPath></defs><g transform="translate(-175 -1111.728)"><g transform="translate(175 1111.728)"><g transform="translate(11.485 17.228)"><path d="M162.737,164.023a1.286,1.286,0,1,1,0-2.572h22.971a1.286,1.286,0,1,1,0,2.572Z" transform="translate(-161.451 -161.451)" fill="#3676bc"/></g><g transform="translate(19.143 9.572)"><path d="M171.16,155.6a1.286,1.286,0,1,1,0-2.572h9.571a1.286,1.286,0,1,1,0,2.572Z" transform="translate(-169.874 -153.029)" fill="#3676bc"/></g><g transform="translate(11.485 24.885)"><path d="M162.737,172.446a1.286,1.286,0,1,1,0-2.572h22.971a1.286,1.286,0,1,1,0,2.572Z" transform="translate(-161.451 -169.874)" fill="#3676bc"/></g><path d="M152.017,202.5a3.2,3.2,0,0,1-3.2-3.2V145.7a3.2,3.2,0,0,1,3.2-3.2h42.115a3.2,3.2,0,0,1,3.2,3.2v53.6a3.2,3.2,0,0,1-3.2,3.2Zm0-57.428a.629.629,0,0,0-.628.628v53.6a.629.629,0,0,0,.628.628h42.108a.629.629,0,0,0,.629-.628l.005-53.6a.63.63,0,0,0-.628-.628Z" transform="translate(-148.817 -142.5)" fill="#3676bc"/><g transform="translate(9 44.028)"><path d="M162.737,193.5a1.286,1.286,0,1,1,0-2.572h27.828a1.286,1.286,0,1,1,0,2.572Z" transform="translate(-161.451 -190.931)" fill="#3676bc"/></g></g><g transform="translate(-17 6)"><path d="M226.835,1172.905v-35.481l2.309-3.9H249.9l2.544,2.2V1174.3l-2.544,2.891H229.144l-2.309-1.833Z" transform="translate(4.165)" fill="#fff"/><g transform="translate(230 1132.277)"><g transform="translate(0 0)" clip-path="url(#a)"><path d="M14.442,46.451c-3.539,0-7.043-.17-10.715-.52A4.415,4.415,0,0,1,0,41.538V4.915A4.392,4.392,0,0,1,3.661.53C7.488.167,10.735,0,13.911,0,17.073,0,20.3.165,24.079.52a4.365,4.365,0,0,1,3.726,4.394V40.338H25.828V4.915A2.407,2.407,0,0,0,23.86,2.486c-3.679-.346-6.85-.509-9.948-.509s-6.3.165-10.031.517a2.419,2.419,0,0,0-1.9,2.42V41.538a2.407,2.407,0,0,0,1.969,2.427c3.577.341,7.02.508,10.5.508a77.574,77.574,0,0,0,8.868-.438c1.188-.182,2.529-1,2.529-2h1.977c0,2.176-2.145,3.641-4.264,3.962a79.374,79.374,0,0,1-9.11.454" transform="translate(0 0)" fill="#3676bc"/><path d="M19.588,52.977H13.411a.989.989,0,1,1,0-1.977h6.177a.989.989,0,1,1,0,1.977" transform="translate(-2.597 -10.662)" fill="#3676bc"/><path d="M18.1,6.406H15.967a.989.989,0,1,1,0-1.977H18.1a.989.989,0,0,1,0,1.977" transform="translate(-3.131 -0.926)" fill="#3676bc"/><rect width="25.308" height="1.977" transform="translate(0.989 36.625)" fill="#3676bc"/><rect width="25.828" height="1.977" transform="translate(0.989 6.753)" fill="#3676bc"/><path d="M13.374,46.451c3.539,0,7.043-.17,10.715-.52a4.415,4.415,0,0,0,3.727-4.392V4.915A4.392,4.392,0,0,0,24.155.53C20.328.167,17.081,0,13.9,0,10.743,0,7.512.165,3.736.52A4.365,4.365,0,0,0,.01,4.915V40.338H1.988V4.915A2.407,2.407,0,0,1,3.956,2.486c3.679-.346,6.85-.509,9.948-.509s6.3.165,10.031.517a2.419,2.419,0,0,1,1.9,2.42V41.538a2.407,2.407,0,0,1-1.969,2.427c-3.577.341-7.02.508-10.5.508a77.574,77.574,0,0,1-8.868-.438c-1.188-.182-2.529-1-2.529-2H0C0,44.211,2.145,45.675,4.264,46a79.374,79.374,0,0,0,9.11.454" transform="translate(0 0)" fill="#3676bc"/><path d="M13.425,52.977H19.6A.989.989,0,1,0,19.6,51H13.425a.989.989,0,1,0,0,1.977" transform="translate(-2.6 -10.662)" fill="#3676bc"/><path d="M15.98,6.406h2.135a.989.989,0,0,0,0-1.977H15.98a.989.989,0,0,0,0,1.977" transform="translate(-3.134 -0.926)" fill="#3676bc"/><rect width="25.308" height="1.977" transform="translate(1.519 36.625)" fill="#3676bc"/><rect width="25.828" height="1.977" transform="translate(0.999 6.753)" fill="#3676bc"/></g></g></g></g></svg>