<svg xmlns="http://www.w3.org/2000/svg" width="59.755" height="64.679" viewBox="0 0 59.755 64.679"><path d="M606.678,29.4a4.527,4.527,0,0,0-3.225-1.335,4.668,4.668,0,0,0-4.56,4.56v7.485l-13.68,6.84V56.08l13.682-4.56v8.109l-4.56,3.42v6.27h2.5l5.7-2.281h1.84l5.7,2.281h2.5v-6.27l-4.56-3.42V51.52L621.7,56.08V46.953l-13.68-6.84V32.628A4.53,4.53,0,0,0,606.678,29.4Zm-.945,3.225v8.894l13.68,6.84v4.555l-13.681-4.562V60.769l4.56,3.42v2.762l-5.48-2.193h-2.72l-5.48,2.193V64.189l4.56-3.42V48.355l-13.681,4.562V48.362l13.68-6.84V32.628a2.334,2.334,0,0,1,2.28-2.28,2.279,2.279,0,0,1,2.28,2.28Z" transform="translate(-561.94 -28.068)" fill="#3676bc"/><path d="M606.655,92.747A44.839,44.839,0,0,1,561.94,48.033a4.845,4.845,0,0,1,4.831-4.831H575.5a4.846,4.846,0,0,1,4.831,4.831,25.87,25.87,0,0,0,1.3,8.165,4.933,4.933,0,0,1-.96,4.681c-.051.059-.105.118-.161.176L577,65.712l.092.169a28.714,28.714,0,0,0,6.264,7.9c.144.127.289.254.437.379a29.182,29.182,0,0,0,3.746,2.707c.414.251.838.5,1.267.727l.17.092,4.773-3.607a4.727,4.727,0,0,1,4.757-.987,25.889,25.889,0,0,0,8.1,1.3,4.857,4.857,0,0,1,4.88,4.831v8.7a4.847,4.847,0,0,1-4.831,4.831ZM566.77,45.386a2.652,2.652,0,0,0-2.646,2.647,42.65,42.65,0,0,0,42.532,42.53,2.654,2.654,0,0,0,2.645-2.647v-8.7a2.655,2.655,0,0,0-2.647-2.647,28.132,28.132,0,0,1-8.839-1.408,2.6,2.6,0,0,0-.862-.15,2.537,2.537,0,0,0-1.746.693.59.59,0,0,1-.087.077l-5.379,4.063a1.087,1.087,0,0,1-.658.221,1.1,1.1,0,0,1-.49-.117c-.75-.377-1.488-.785-2.191-1.213a31.277,31.277,0,0,1-4.031-2.912c-.155-.133-.313-.269-.466-.406A30.838,30.838,0,0,1,574.74,66.1a1.085,1.085,0,0,1,.1-1.147l3.951-5.25a1.36,1.36,0,0,1,.1-.116c.046-.046.089-.091.129-.138a2.673,2.673,0,0,0,.529-2.57,28.034,28.034,0,0,1-1.411-8.843,2.653,2.653,0,0,0-2.646-2.646Z" transform="translate(-561.94 -28.068)" fill="#3676bc"/></svg>