<svg xmlns="http://www.w3.org/2000/svg" width="48.515" height="60" viewBox="0 0 48.515 60"><g transform="translate(11.485 17.228)"><path d="M162.737,164.023a1.286,1.286,0,1,1,0-2.572h22.971a1.286,1.286,0,1,1,0,2.572Z" transform="translate(-161.451 -161.451)" fill="#3676bc"/></g><g transform="translate(19.143 9.572)"><path d="M171.16,155.6a1.286,1.286,0,1,1,0-2.572h9.571a1.286,1.286,0,1,1,0,2.572Z" transform="translate(-169.874 -153.029)" fill="#3676bc"/></g><g transform="translate(11.485 24.885)"><path d="M162.737,172.446a1.286,1.286,0,1,1,0-2.572h22.971a1.286,1.286,0,1,1,0,2.572Z" transform="translate(-161.451 -169.874)" fill="#3676bc"/></g><path d="M152.017,202.5a3.2,3.2,0,0,1-3.2-3.2V145.7a3.2,3.2,0,0,1,3.2-3.2h42.115a3.2,3.2,0,0,1,3.2,3.2v53.6a3.2,3.2,0,0,1-3.2,3.2Zm0-57.428a.629.629,0,0,0-.628.628v53.6a.629.629,0,0,0,.628.628h42.108a.629.629,0,0,0,.629-.628l.005-53.6a.63.63,0,0,0-.628-.628Z" transform="translate(-148.817 -142.5)" fill="#3676bc"/><g transform="translate(22.971 34.457)"><path d="M183.029,198.288a8.943,8.943,0,1,1,8.943-8.943A8.954,8.954,0,0,1,183.029,198.288Zm0-15.314a6.371,6.371,0,1,0,6.371,6.371A6.378,6.378,0,0,0,183.029,182.975Z" transform="translate(-174.085 -180.403)" fill="#3676bc"/></g><g transform="translate(11.485 44.028)"><path d="M162.737,193.5a1.286,1.286,0,1,1,0-2.572h3.828a1.286,1.286,0,1,1,0,2.572Z" transform="translate(-161.451 -190.931)" fill="#3676bc"/></g><g transform="translate(30.628 42.115)"><rect width="2.572" height="2.572" fill="#3676bc"/></g></svg>