<svg xmlns="http://www.w3.org/2000/svg" width="62.969" height="64.394" viewBox="0 0 62.969 64.394"><g transform="translate(0.15 0.15)"><path d="M1273.081,4178.007v-10.46H1255v10.46h-10.459v18.079H1255v10.46h18.08v-10.46h10.46v-18.079Zm7.676,15.294H1270.3v10.46h-12.511V4193.3h-10.459v-12.51h10.459v-10.46H1270.3v10.46h10.46Z" transform="translate(-1220.872 -4167.547)" fill="#3676bc" stroke="#fff" stroke-width="0.3"/><path d="M1064.136,4331.572h-.047a25.633,25.633,0,0,1-8-1.28,5.02,5.02,0,0,0-5.036,1.031l-4.62,3.49c-.425-.23-.844-.471-1.254-.719a28.751,28.751,0,0,1-3.709-2.68c-.145-.123-.289-.248-.43-.374a28.518,28.518,0,0,1-6.2-7.814l3.369-4.476q.089-.093.172-.188a5.2,5.2,0,0,0,1.017-4.97,25.647,25.647,0,0,1-1.289-8.072,5.137,5.137,0,0,0-5.131-5.131h-8.724a5.137,5.137,0,0,0-5.131,5.132,45.065,45.065,0,0,0,45.014,45.013,5.137,5.137,0,0,0,5.131-5.131v-8.7A5.137,5.137,0,0,0,1064.136,4331.572Zm2.347,13.831a2.349,2.349,0,0,1-2.345,2.347,42.281,42.281,0,0,1-42.232-42.23,2.349,2.349,0,0,1,2.347-2.347h8.724a2.349,2.349,0,0,1,2.347,2.345,28.4,28.4,0,0,0,1.424,8.934,2.391,2.391,0,0,1-.47,2.284c-.036.042-.074.082-.113.122a1.457,1.457,0,0,0-.128.147l-3.951,5.25a1.392,1.392,0,0,0-.132,1.462,31.3,31.3,0,0,0,7.232,9.408q.234.208.472.411a31.508,31.508,0,0,0,4.069,2.94c.717.436,1.461.847,2.212,1.224a1.391,1.391,0,0,0,1.464-.133l5.377-4.061c.04-.03.078-.062.114-.1a2.246,2.246,0,0,1,2.284-.484l.025.008a28.387,28.387,0,0,0,8.885,1.423h.047a2.35,2.35,0,0,1,2.347,2.347Z" transform="translate(-1019.122 -4286.439)" fill="#3676bc" stroke="#fff" stroke-width="0.3"/><path d="M1369.9,4306.685a2.844,2.844,0,0,0-3.067-2.938,4.18,4.18,0,0,0-2.7.97l-.287.243.785,1.738.5-.419a2.4,2.4,0,0,1,1.464-.595c.5,0,1.169.119,1.169,1.138-.011,1.051-.885,2.05-2.975,4.04l-1.042,1.012v1.4h6.354v-1.937h-3.035C1368.689,4309.768,1369.9,4308.4,1369.9,4306.685Z" transform="translate(-1327.565 -4289.446)" fill="#3676bc" stroke="#fff" stroke-width="0.3"/><path d="M1429.119,4305.1h-1.983l-3.984,5.7v1.4h3.9v2.286h2.066V4312.2h1.175v-1.886h-1.175Zm-3.368,5.217,1.3-1.81v1.81Z" transform="translate(-1380.728 -4290.657)" fill="#3676bc" stroke="#fff" stroke-width="0.3"/></g></svg>