<svg xmlns="http://www.w3.org/2000/svg" width="56.364" height="58.523" viewBox="0 0 56.364 58.523"><g transform="translate(0.15 0.15)"><path d="M3.142,1.4A1.378,1.378,0,0,1,4.52.022H6.906V-2.364A1.378,1.378,0,0,1,8.284-3.742,1.378,1.378,0,0,1,9.662-2.364V.022h2.385a1.378,1.378,0,1,1,0,2.756H9.662V5.164a1.378,1.378,0,0,1-2.756,0V2.778H4.52A1.378,1.378,0,0,1,3.142,1.4M36.315,48.046a1.378,1.378,0,0,1-1.378,1.378H-18.371a1.379,1.379,0,0,1-1.378-1.378,1.378,1.378,0,0,1,1.378-1.378h5.286V1.4A1.378,1.378,0,0,1-11.707.022h9.884a10.2,10.2,0,0,1,20.214,0h9.885A1.379,1.379,0,0,1,29.653,1.4V46.668h5.283a1.378,1.378,0,0,1,1.378,1.378M.84,1.4a7.444,7.444,0,1,0,14.888,0A7.444,7.444,0,1,0,.84,1.4M6.906,36.741H-.2v9.927H6.906Zm9.864,0H9.662v9.927H16.77ZM26.9,2.778H18.392a10.2,10.2,0,0,1-20.215,0h-8.506v43.89h7.371v-11.3A1.377,1.377,0,0,1-1.58,33.986H18.148a1.377,1.377,0,0,1,1.378,1.377v11.3H26.9ZM17.755,14.926h4.7A1.378,1.378,0,0,1,23.829,16.3V28.589a1.378,1.378,0,0,1-1.378,1.378h-4.7a1.378,1.378,0,0,1-1.378-1.378V16.3a1.378,1.378,0,0,1,1.378-1.378m1.378,12.285h1.939V17.682H19.133ZM12.009,16.3V28.589a1.378,1.378,0,0,1-1.378,1.378h-4.7a1.378,1.378,0,0,1-1.378-1.378V16.3a1.379,1.379,0,0,1,1.378-1.378h4.7A1.378,1.378,0,0,1,12.009,16.3M9.253,17.682H7.314v9.529H9.253ZM.191,16.3V28.589a1.378,1.378,0,0,1-1.378,1.378h-4.7a1.378,1.378,0,0,1-1.378-1.378V16.3a1.378,1.378,0,0,1,1.378-1.378h4.7A1.378,1.378,0,0,1,.191,16.3m-2.756,1.378H-4.5v9.529h1.939Z" transform="translate(19.749 8.799)" fill="#2b79c1" stroke="#fff" stroke-width="0.3"/></g></svg>