<svg xmlns="http://www.w3.org/2000/svg" xmlns:xlink="http://www.w3.org/1999/xlink" width="49.756" height="56.148" viewBox="0 0 49.756 56.148"><defs><clipPath id="a"><rect width="49.756" height="56.148" fill="#3676bc"/></clipPath></defs><g transform="translate(0 0)"><g transform="translate(0 0)" clip-path="url(#a)"><path d="M16.939,57.386A17.031,17.031,0,0,1,7.1,54.162,17.355,17.355,0,0,1,.061,38.318C.34,34.673,1.7,30.431,3.192,26.042A29.247,29.247,0,0,0,4.587,12.524c-.2-1.887-.34-3.251.787-3.922a5.6,5.6,0,0,1,4.4.072,6.723,6.723,0,0,1,4.187,4.144l-2.013.671a4.715,4.715,0,0,0-2.916-2.827,4.431,4.431,0,0,0-2.453-.288A11.791,11.791,0,0,0,6.7,12.3,31.182,31.182,0,0,1,5.2,26.722C3.756,30.98,2.438,35.081,2.176,38.481A15.279,15.279,0,0,0,8.343,52.439c4,2.875,9.167,3.635,13.172,1.94l12.793-5.51.839,1.949-12.8,5.511a13.865,13.865,0,0,1-5.409,1.057" transform="translate(0 -1.238)" fill="#3676bc"/><path d="M29.512,49.848c-3.8,0-7.559-.182-11.5-.559a4.738,4.738,0,0,1-4-4.713V5.274A4.714,4.714,0,0,1,17.943.569C22.05.179,25.534,0,28.943,0c3.393,0,6.86.177,10.912.559a4.684,4.684,0,0,1,4,4.716V23.566H41.732V5.274a2.584,2.584,0,0,0-2.113-2.607c-3.948-.371-7.351-.546-10.676-.546-3.34,0-6.761.177-10.764.555a2.6,2.6,0,0,0-2.042,2.6v39.3a2.583,2.583,0,0,0,2.114,2.6c3.838.366,7.533.545,11.263.545a87.48,87.48,0,0,0,9.758-.47c1.274-.2,2.714-1.076,2.714-2.147h2.122c0,2.335-2.3,3.907-4.577,4.252a89.354,89.354,0,0,1-10.017.487" transform="translate(-2.119 0)" fill="#3676bc"/><path d="M47,44.27A4.084,4.084,0,0,1,43.2,41.709a4.226,4.226,0,0,1,2.187-5.453l3.239-1.417a3.966,3.966,0,0,1,1.558-.316,4.082,4.082,0,0,1,3.8,2.566A4.224,4.224,0,0,1,51.8,42.537l-3.239,1.416A3.916,3.916,0,0,1,47,44.27m3.189-7.625a1.827,1.827,0,0,0-.716.141L46.232,38.2a2.094,2.094,0,0,0-1.064,2.711A1.947,1.947,0,0,0,47,42.148a1.817,1.817,0,0,0,.715-.141l3.241-1.417a2.09,2.09,0,0,0,1.063-2.707,1.945,1.945,0,0,0-1.829-1.238" transform="translate(-6.485 -5.22)" fill="#3676bc"/><path d="M47.231,52.8A3.792,3.792,0,0,1,43.7,50.419a3.927,3.927,0,0,1,2.027-5.058l2.933-1.28a3.629,3.629,0,0,1,1.451-.3,3.788,3.788,0,0,1,3.523,2.383,3.925,3.925,0,0,1-2.027,5.059l-2.935,1.283a3.662,3.662,0,0,1-1.445.293m2.884-6.9a1.537,1.537,0,0,0-.607.121l-2.931,1.278a1.793,1.793,0,0,0-.9,2.318,1.657,1.657,0,0,0,1.558,1.057,1.526,1.526,0,0,0,.6-.117l2.936-1.283a1.791,1.791,0,0,0,.906-2.317,1.657,1.657,0,0,0-1.556-1.057" transform="translate(-6.565 -6.621)" fill="#3676bc"/><path d="M47.014,35.117a4.085,4.085,0,0,1-3.795-2.562v0A4.225,4.225,0,0,1,45.4,27.1l2.178-1a3.945,3.945,0,0,1,1.577-.325,4.086,4.086,0,0,1,3.795,2.567,4.225,4.225,0,0,1-2.185,5.45l-2.181,1a3.93,3.93,0,0,1-1.574.323m-1.829-3.36A1.949,1.949,0,0,0,47.014,33a1.82,1.82,0,0,0,.715-.141l2.178-.995a2.094,2.094,0,0,0,1.081-2.713A1.951,1.951,0,0,0,49.158,27.9a1.8,1.8,0,0,0-.711.14l-2.183,1a2.1,2.1,0,0,0-1.079,2.714" transform="translate(-6.488 -3.899)" fill="#3676bc"/><path d="M34.127,53.122H27.5A1.061,1.061,0,0,1,27.5,51h6.629a1.061,1.061,0,0,1,0,2.122" transform="translate(-3.997 -7.711)" fill="#3676bc"/><path d="M32.344,6.551H30.053a1.061,1.061,0,0,1,0-2.122h2.291a1.061,1.061,0,0,1,0,2.122" transform="translate(-4.384 -0.67)" fill="#3676bc"/><rect width="25.715" height="2.122" transform="translate(12.957 39.303)" fill="#3676bc"/><rect width="27.718" height="2.122" transform="translate(12.957 7.247)" fill="#3676bc"/><path d="M48.262,22.818l-.834-1.951,5.926-2.535A2.5,2.5,0,0,0,54.62,15.1a2.007,2.007,0,0,0-2.735-1.272c-.5.144-2.975,1.019-3.629,1.3l-.823-1.956c.731-.307,3.294-1.215,3.867-1.378A4.087,4.087,0,0,1,56.587,14.3a4.635,4.635,0,0,1-2.4,5.982Z" transform="translate(-7.171 -1.749)" fill="#3676bc"/></g></g></svg>