<svg xmlns="http://www.w3.org/2000/svg" width="52.798" height="63.433" viewBox="0 0 52.798 63.433"><g transform="translate(0.25 0.25)"><path d="M5520.576,4553.1c-1.373-2.007-2.858-2.653-6.765-.319-.023.014-.046.028-.068.043l-6.458,4.395a9.746,9.746,0,0,1-3.641.638,3.938,3.938,0,0,0-.667-2.43,6.9,6.9,0,0,0-5.96-3.424H5494.1a6.078,6.078,0,0,1-3.838-1.355c-1.237-1.051-3.511-1.885-7.333.052a18.737,18.737,0,0,0-1.9,1.118v-1.485h-12.074v22.78h12.074v-2.505h9.554a28.547,28.547,0,0,0,4.718-.437l9.622-1.653c.185-.008.362-.029.521-.049.119-.015.253-.031.318-.031a1.312,1.312,0,0,0,.139-.007,4.932,4.932,0,0,0,2.881-1.522l11.329-9.822A3.074,3.074,0,0,0,5520.576,4553.1Zm-42.282,17.276h-6.6v-17.307h6.6Zm40.05-15.382a.134.134,0,0,1-.018.016l-11.365,9.854c-.021.018-.04.036-.06.055a2.432,2.432,0,0,1-1.231.781c-.2.006-.39.03-.561.051-.118.015-.253.031-.318.031a1.421,1.421,0,0,0-.232.02l-9.714,1.67a25.867,25.867,0,0,1-4.261.4h-9.554v-12.645c1.361-1.172,5.591-4.094,7.468-2.485l.031.026a8.785,8.785,0,0,0,5.57,1.973h2.916a4.188,4.188,0,0,1,3.61,2.089,1.963,1.963,0,0,1,.294.7,3.359,3.359,0,0,1-1.495.33c-.31-.006-.592-.01-.84-.01h-6.636a1.369,1.369,0,1,0,0,2.737h6.586a8.934,8.934,0,0,0,.971.011l.335.006c3.6.071,6.98.046,8.85-1.037.029-.017.057-.034.085-.053l6.471-4.4c1.633-.972,2.262-1.1,2.492-1.083.048,0,.161.01.571.609A.431.431,0,0,1,5518.344,4554.993Z" transform="translate(-5468.956 -4510.178)" fill="#3676bc" stroke="#fff" stroke-width="0.5"/><path d="M5733.6,4340.086q-.1-.094-.2-.183l-.033-.027q-.1-.083-.2-.164l-.033-.024c-.068-.053-.137-.1-.208-.153l-.034-.023c-.071-.049-.142-.1-.214-.143l-.036-.021c-.072-.044-.144-.088-.217-.129l-.048-.026c-.069-.038-.139-.075-.209-.111l-.071-.033c-.063-.031-.126-.062-.19-.09l-.115-.048c-.049-.021-.1-.042-.149-.062s-.127-.047-.191-.069l-.076-.027a6.1,6.1,0,0,0-2.934-.232l-.07.014c-.07.012-.14.025-.21.04l-.136.032-.143.035c-.058.016-.115.033-.171.05l-.107.031c-.061.02-.122.041-.182.063l-.1.034c-.059.021-.117.046-.176.07l-.1.041c-.053.022-.1.047-.156.072l-.117.054c-.042.021-.083.043-.125.065s-.1.049-.143.075l-.083.049c-.06.034-.12.068-.179.105l-.023.016a5.977,5.977,0,0,0-1.5,1.336l-.036.043c-.042.054-.082.107-.122.162-.02.026-.04.053-.059.08-.033.047-.064.1-.1.143s-.048.07-.07.105-.054.089-.081.133-.049.081-.073.122-.048.089-.072.134-.045.083-.066.125-.048.1-.072.15-.036.075-.052.112c-.028.063-.054.126-.08.188-.01.026-.021.051-.031.077-.034.086-.065.173-.095.261l0,.008a6.087,6.087,0,0,0-.274,2.655.059.059,0,0,0,0,.01q.015.135.038.269c.008.046.017.091.025.137s.018.094.027.141c.015.071.032.142.05.212.006.021.011.044.017.065q.034.128.073.254l.007.023q.043.138.094.273v0c.068.184.146.366.232.543l0,0c.042.086.086.171.132.255l.006.013q.067.12.139.237l.014.024c.046.075.1.148.145.222l.022.033c.05.072.1.144.156.214.009.011.017.022.025.034q.094.122.194.24l.46.54,9.086,10.646h0a6.048,6.048,0,0,0,9.2-7.853l-6.443-7.548-3.1-3.637a6.047,6.047,0,0,0-.424-.448Zm1.855,6.334-5.068,4.262-3.459-4.053a3.248,3.248,0,0,1-.2-.264c-.022-.031-.04-.064-.06-.1-.039-.061-.079-.12-.113-.183s-.049-.1-.074-.148-.048-.093-.068-.14c-.032-.074-.059-.149-.085-.225-.008-.023-.019-.047-.026-.071a3.324,3.324,0,0,1-.146-1.281,3.285,3.285,0,0,1,1.146-2.258c.034-.029.07-.054.1-.082s.091-.073.139-.106.088-.058.133-.087.086-.055.129-.08.1-.052.146-.077.083-.042.126-.062.106-.046.161-.067c.038-.015.076-.029.115-.042.06-.021.121-.041.182-.058l.092-.024c.071-.018.142-.035.214-.047l.046-.008a3.344,3.344,0,0,1,.552-.047c.089,0,.179,0,.269.011a3.345,3.345,0,0,1,1.245.347l.034.02c.082.042.163.087.241.137.038.024.074.053.112.079s.1.068.149.106.118.1.175.152c.023.021.048.04.071.061q.119.115.229.243l3.167,3.71Zm5.688,11.764a3.316,3.316,0,0,1-4.668-.369h0l-4.311-5.051,5.068-4.262,4.28,5.014A3.316,3.316,0,0,1,5741.147,4358.185Z" transform="translate(-5697.141 -4320.872)" fill="#3676bc" stroke="#fff" stroke-width="0.5"/><path d="M5617.681,4189.278a5.5,5.5,0,0,0,3.114.965,5.672,5.672,0,0,0,1.046-.1,5.52,5.52,0,0,0,3.561-2.322l7.422-10.869c.053-.078.1-.157.153-.237.012-.02.023-.041.035-.06.036-.061.072-.121.105-.183.012-.021.022-.043.033-.063.033-.062.065-.123.095-.186.009-.019.017-.038.026-.057.03-.065.061-.13.088-.2l.019-.049c.028-.069.056-.138.081-.208.005-.014.009-.027.014-.041.026-.073.05-.146.073-.22l.011-.038c.022-.074.043-.148.062-.223,0-.016.008-.031.012-.046.017-.072.034-.143.048-.215,0-.022.008-.044.012-.066.012-.065.024-.13.034-.2.005-.036.01-.071.014-.107s.014-.1.02-.153.01-.12.015-.18c0-.026,0-.054.006-.08a5.6,5.6,0,0,0-.5-2.652l-.045-.093c-.022-.047-.045-.095-.069-.142s-.054-.1-.082-.151c-.015-.026-.028-.053-.044-.08-.035-.061-.073-.122-.11-.182l-.028-.045q-.064-.1-.132-.194c-.006-.009-.012-.019-.019-.027-.047-.066-.1-.131-.146-.195l-.017-.022c-.05-.063-.1-.125-.155-.186l-.021-.025c-.051-.059-.1-.115-.157-.171l-.031-.032c-.051-.053-.1-.1-.157-.154-.014-.014-.027-.028-.042-.041-.05-.047-.1-.092-.154-.137l-.055-.048c-.051-.042-.1-.083-.155-.124-.022-.017-.042-.035-.065-.052-.059-.044-.118-.086-.179-.129l-.05-.035c-.078-.054-.158-.105-.238-.154l-.03-.018c-.07-.042-.142-.084-.213-.123l-.037-.019c-.07-.038-.141-.074-.212-.108l-.033-.016c-.073-.034-.146-.067-.22-.1l-.027-.011c-.076-.031-.153-.062-.23-.09l-.021-.007c-.079-.028-.159-.055-.239-.08l-.021-.006c-.08-.024-.16-.046-.241-.067l-.026-.006c-.078-.02-.156-.038-.235-.054l-.048-.008c-.07-.014-.142-.027-.214-.038l-.086-.011c-.058-.008-.116-.016-.174-.022s-.1-.009-.155-.013l-.105-.008a5.6,5.6,0,0,0-2.65.5l-.084.041c-.05.024-.1.048-.15.073s-.095.051-.142.077l-.089.049c-.058.034-.115.069-.172.1l-.055.034c-.062.041-.124.083-.185.125l-.038.026c-.062.044-.124.091-.185.139l-.032.024q-.089.072-.176.147l-.034.029c-.056.048-.11.1-.164.151l-.039.036c-.052.05-.1.1-.151.153-.014.016-.03.03-.043.045-.047.05-.091.1-.136.153-.017.019-.034.038-.05.057-.044.052-.086.106-.128.16-.016.02-.032.039-.047.06-.057.074-.112.15-.165.229l-7.422,10.869A5.562,5.562,0,0,0,5617.681,4189.278Zm10.281-10.058-4.656-3.18,2.6-3.811c.054-.078.111-.153.171-.225.033-.04.069-.075.1-.112s.056-.062.084-.091c.051-.05.105-.1.16-.142.016-.013.029-.027.045-.039a2.857,2.857,0,0,1,2.344-.56l.029.007c.078.017.155.036.231.06.036.011.072.026.108.039s.1.034.148.055.105.05.158.076c.031.015.063.029.093.045.077.041.152.088.225.137l.017.011a2.758,2.758,0,0,1,.227.172c.023.02.044.041.066.062.047.042.094.084.138.128s.066.075.1.113.056.061.081.092c.048.061.092.123.135.188.007.011.016.021.022.031a2.868,2.868,0,0,1,.4,2.124s0,0,0,.006q-.027.13-.066.255c-.008.026-.019.052-.028.078-.021.06-.042.121-.066.179-.018.041-.039.081-.058.121s-.04.087-.062.129c-.034.062-.073.123-.113.183-.012.019-.022.039-.035.058l-1.244,1.822Zm-9.476,3.879,3.276-4.8,4.657,3.18-3.277,4.8a2.819,2.819,0,1,1-4.656-3.18Z" transform="translate(-5600.157 -4168.267)" fill="#3676bc" stroke="#fff" stroke-width="0.5"/></g></svg>