<svg xmlns="http://www.w3.org/2000/svg" width="88.378" height="62.64" viewBox="0 0 88.378 62.64"><g transform="translate(1.165 1.586)"><g transform="translate(0 3.535)"><g transform="translate(32.931 27.34)"><path d="M119.466,324.385l-.119,9.584a3.5,3.5,0,0,0,3.026,3.573,3.406,3.406,0,0,0,3.782-3.343l.239-15.644" transform="translate(-119.347 -318.556)" fill="none" stroke="#3676bc" stroke-miterlimit="10" stroke-width="2.25"/></g><g transform="translate(26.035 31.126)"><path d="M108.148,328.171l-.187,15.135a3.405,3.405,0,1,0,6.81.084l.23-18.584" transform="translate(-107.961 -324.807)" fill="none" stroke="#3676bc" stroke-miterlimit="10" stroke-width="2.25"/></g><g transform="translate(19.182 35.457)"><path d="M96.8,336.966l-.154,12.481a3.405,3.405,0,1,0,6.81.084l.217-17.574" transform="translate(-96.647 -331.958)" fill="none" stroke="#3676bc" stroke-miterlimit="10" stroke-width="2.25"/></g><path d="M84.381,308.046,84.2,322.815a3.5,3.5,0,0,1-3.031,3.485,3.408,3.408,0,0,1-3.78-3.428l.273-22.02a2.136,2.136,0,0,0-2.016-2.16h0a2.136,2.136,0,0,0-2.226,1.773L72.6,305.28a5.208,5.208,0,0,1-6.227,4.213h0a1.764,1.764,0,0,1-1.356-2.086l3.449-16.47a11.759,11.759,0,0,1,6.037-8l2.888-1.519.084-8" transform="translate(-64.974 -273.415)" fill="none" stroke="#3676bc" stroke-miterlimit="10" stroke-width="2.25"/></g><g transform="translate(18.622)"><g transform="translate(0 13.976)"><line x1="1.88" y2="2.204" transform="translate(12.06)" fill="none" stroke="#3676bc" stroke-miterlimit="10" stroke-width="2.25"/><line x1="1.88" y2="2.204" transform="translate(6.03 1.957)" fill="none" stroke="#3676bc" stroke-miterlimit="10" stroke-width="2.25"/><line x1="1.88" y2="2.204" transform="translate(11.079 6.263)" fill="none" stroke="#3676bc" stroke-miterlimit="10" stroke-width="2.25"/><line x1="1.88" y2="2.204" transform="translate(0 3.915)" fill="none" stroke="#3676bc" stroke-miterlimit="10" stroke-width="2.25"/><line x1="1.88" y2="2.204" transform="translate(5.049 8.221)" fill="none" stroke="#3676bc" stroke-miterlimit="10" stroke-width="2.25"/><line x1="1.88" y2="2.204" transform="translate(10.097 12.526)" fill="none" stroke="#3676bc" stroke-miterlimit="10" stroke-width="2.25"/></g><g transform="translate(39.396 22.09)"><line x1="8.428" y2="9.882" transform="translate(0.727)" fill="none" stroke="#3676bc" stroke-miterlimit="10" stroke-width="2.25"/><line x2="9.882" y2="8.428" transform="translate(0 0.727)" fill="none" stroke="#3676bc" stroke-miterlimit="10" stroke-width="2.25"/></g><rect width="24.469" height="39.271" rx="9.718" transform="matrix(-0.649, 0.761, -0.761, -0.649, 67.005, 30.547)" fill="none" stroke="#3676bc" stroke-miterlimit="10" stroke-width="2.25"/><path d="M0,0H13.65a0,0,0,0,1,0,0V3.834A2.915,2.915,0,0,1,10.734,6.75H2.915A2.915,2.915,0,0,1,0,3.834V0A0,0,0,0,1,0,0Z" transform="translate(33.615 9.179) rotate(130.46)" fill="none" stroke="#3676bc" stroke-miterlimit="10" stroke-width="2.25"/><path d="M0,0H8.215a0,0,0,0,1,0,0V7.666A2.915,2.915,0,0,1,5.3,10.582H2.915A2.915,2.915,0,0,1,0,7.666V0A0,0,0,0,1,0,0Z" transform="matrix(-0.649, 0.761, -0.761, -0.649, 26.716, 6.867)" fill="none" stroke="#3676bc" stroke-miterlimit="10" stroke-width="2.25"/><rect width="24.419" height="21.126" transform="matrix(-0.649, 0.761, -0.761, -0.649, 60.315, 24.824)" fill="none" stroke="#3676bc" stroke-miterlimit="10" stroke-width="2.25"/><line y1="2.277" x2="1.942" transform="translate(17.656 7.396)" fill="none" stroke="#3676bc" stroke-miterlimit="10" stroke-width="2.25"/></g></g></svg>