<svg xmlns="http://www.w3.org/2000/svg" width="77.506" height="60.243" viewBox="0 0 77.506 60.243"><g transform="translate(1.125 1.118)"><path d="M333.573,351.094H288.945a5.851,5.851,0,0,1-3.96-1.543l-4.171-3.835,4.163-3.9a5.852,5.852,0,0,1,4-1.579h44.567a5.851,5.851,0,0,1,4,1.579l4.163,3.9-4.171,3.835A5.85,5.85,0,0,1,333.573,351.094Z" transform="translate(-273.443 -293.094)" fill="none" stroke="#3676bc" stroke-miterlimit="10" stroke-width="2.25"/><path d="M366.018,329.821h7V300.015h-7l-4.171-3.857a5.687,5.687,0,0,0-3.32-1.558h-7.9" transform="translate(-297.759 -277.197)" fill="none" stroke="#3676bc" stroke-miterlimit="10" stroke-width="2.25"/><path d="M276.873,329.821H269.5V300.015h7.369l4.171-3.857a5.848,5.848,0,0,1,3.974-1.558h3.56" transform="translate(-269.504 -277.197)" fill="none" stroke="#3676bc" stroke-miterlimit="10" stroke-width="2.25"/><path d="M304.022,315.1l.53,1.477a3.274,3.274,0,0,0,3.081,2.166h23.493a3.274,3.274,0,0,0,2.962-1.879l.424-.9" transform="translate(-281.527 -284.337)" fill="none" stroke="#3676bc" stroke-miterlimit="10" stroke-width="2.25"/><line y1="11.077" transform="translate(37.844 17.656)" fill="none" stroke="#3676bc" stroke-miterlimit="10" stroke-width="2.25"/><line y1="6.018" x2="0.683" transform="translate(42.471 22.922)" fill="none" stroke="#3676bc" stroke-miterlimit="10" stroke-width="2.25"/><line x1="0.683" y1="6.018" transform="translate(32.591 22.922)" fill="none" stroke="#3676bc" stroke-miterlimit="10" stroke-width="2.25"/><line y2="29.275" transform="translate(68.26 22.818)" fill="none" stroke="#3676bc" stroke-miterlimit="10" stroke-width="2.25"/><line y1="29.995" transform="translate(7.371 22.627)" fill="none" stroke="#3676bc" stroke-miterlimit="10" stroke-width="2.25"/><path d="M308.721,297.894a26.579,26.579,0,0,1-3.825-25.53,14.669,14.669,0,0,0,7.139,1.75c9.792-.065,13.588-10.551,26.713-4.147,0,0-11.224,12.238-8.564,27.815" transform="translate(-281.246 -267.895)" fill="none" stroke="#3676bc" stroke-miterlimit="10" stroke-width="2.25"/></g></svg>