<svg xmlns="http://www.w3.org/2000/svg" width="57.945" height="66.1" viewBox="0 0 57.945 66.1"><g transform="translate(1.125 1.125)"><path d="M2.43,1.849A20.787,20.787,0,0,0-4,16.708c0,2.916,3.907,4.352-2.031,12.565-.725,1-1.947,2.162-1.947,6.672,0,4.474,3.376,10.89,6.125,14.337A8.126,8.126,0,0,0,5.008,53.6c2.774,0,10.885-2.652,10.885-2.652l1.327,6.63m7.956-25.2s.116,2.652,3.315,2.652c2.664,0,4.275-2.191,5.7-4.459,1.541-2.457,2.924-3.983,2.924-7.474,0-2.652-1.99-5.3-5.968-5.3-4.018,0-5.968,2.142-5.968,5.3m-30.5,5.3H9.263L26,20.039M7.954,53.173l9.266-12.83,9.722-5.572M9.263,28.408,17.22,40.343m5.3-23.869A3.979,3.979,0,0,0,18.545,12.5H16.5a3.978,3.978,0,0,1-3.939-4.54l.678-4.741s-6.655-.72-10.61-1.327c-3.846-.59-3.65-7.956,1.653-7.956H23.85c13.874,0,23.869,8.251,23.869,23.123,0,12.611-9.283,21.279-9.283,27.367,0,2.771,2.652,10.509,2.652,10.509m-2.51-11.891-4.12-5.348" transform="translate(7.976 6.069)" fill="none" stroke="#3676bc" stroke-linecap="round" stroke-linejoin="round" stroke-miterlimit="10" stroke-width="2.25"/></g></svg>