<svg xmlns="http://www.w3.org/2000/svg" width="54.713" height="70.484" viewBox="0 0 54.713 70.484"><g transform="translate(0.5 0.5)"><path d="M345.691,3289.445a3.408,3.408,0,0,0-3.591-3.6c-.309,0-.614.006-.921.013,0-.339,0-.67,0-1a3.406,3.406,0,0,0-3.49-3.522c-.648-.009-1.3-.008-1.946,0a3.472,3.472,0,0,0-3.651,3.653c0,.292,0,.585,0,.883-.285-.007-.567-.011-.852-.011h-.2a3.406,3.406,0,0,0-3.464,3.459c-.007.436-.006.871,0,1.306v.537a3.437,3.437,0,0,0,3.775,3.782c.246,0,.492,0,.737-.011,0,.332,0,.655,0,.978a3.394,3.394,0,0,0,3.524,3.544q.422.006.845.006.609,0,1.218-.011a3.449,3.449,0,0,0,3.5-3.532c0-.33,0-.659-.006-.994.371.007.739.011,1.108.007a3.382,3.382,0,0,0,3.42-3.435c.009-.535.007-1.071.005-1.59Zm-3.046,2c-.006.382-.2.438-.416.44-.555.008-1.114-.007-1.715-.022-.284-.007-.575-.014-.874-.02a1.543,1.543,0,0,0-1.1.443,1.522,1.522,0,0,0-.448,1.1c0,.3.009.59.015.868.01.576.02,1.12.018,1.649,0,.37-.129.5-.5.5-.656.011-1.312.015-1.968,0-.458-.007-.524-.117-.526-.521,0-.544,0-1.087.006-1.675,0-.273,0-.555.007-.851a1.522,1.522,0,0,0-1.522-1.531h-.047c-.252.008-.5.017-.745.027-.514.02-1,.039-1.491.039h0a1.341,1.341,0,0,1-.62-.092,1.284,1.284,0,0,1-.1-.645v-.548c0-.415,0-.831,0-1.246s.229-.466.446-.468h.178c.484,0,.978.015,1.5.031.277.009.56.017.851.024a1.522,1.522,0,0,0,1.557-1.533l-.007-.775c-.006-.575-.011-1.115-.01-1.657,0-.509.105-.612.623-.615.629,0,1.259,0,1.888,0,.364,0,.486.079.489.5,0,.543,0,1.086,0,1.661,0,.284,0,.575,0,.878a1.521,1.521,0,0,0,1.559,1.523l.8-.022c.562-.017,1.093-.033,1.624-.034.4,0,.535.046.536.566v.459C342.651,3290.415,342.653,3290.935,342.644,3291.441Z" transform="translate(-321.502 -3236.503)" fill="#3676bc" stroke="#fff" stroke-width="1"/><path d="M313.467,2834.027a5.767,5.767,0,0,0,1.613-4.018v-30.071a5.622,5.622,0,0,0-5.53-5.7h-42.1a5.622,5.622,0,0,0-5.531,5.7v30.071a5.767,5.767,0,0,0,1.613,4.018,5.684,5.684,0,0,0-1.889,4.233v19.767a5.7,5.7,0,0,0,5.7,5.7h42.317a5.7,5.7,0,0,0,5.7-5.7V2838.26A5.684,5.684,0,0,0,313.467,2834.027Zm-48.5-4.018v-30.071a2.578,2.578,0,0,1,2.487-2.655h42.1a2.578,2.578,0,0,1,2.487,2.655v30.071a2.629,2.629,0,0,1-1.9,2.576c-.159-.014-.319-.022-.481-.022H267.342c-.162,0-.323.008-.481.022A2.629,2.629,0,0,1,264.963,2830.009Zm47.35,28.018a2.658,2.658,0,0,1-2.654,2.655H267.342a2.658,2.658,0,0,1-2.654-2.655V2838.26a2.659,2.659,0,0,1,2.1-2.6,5.368,5.368,0,0,0,.661.042h42.1a5.362,5.362,0,0,0,.66-.042,2.659,2.659,0,0,1,2.1,2.6Z" transform="translate(-261.644 -2794.24)" fill="#3676bc" stroke="#fff" stroke-width="1"/><path d="M323.673,2882.907h39.533a1.522,1.522,0,0,0,1.522-1.522v-26.17a1.522,1.522,0,0,0-1.522-1.521H323.673a1.522,1.522,0,0,0-1.522,1.521v26.17A1.522,1.522,0,0,0,323.673,2882.907Zm1.522-26.17h36.49v23.126h-36.49Z" transform="translate(-316.583 -2848.223)" fill="#3676bc" stroke="#fff" stroke-width="1"/><path d="M532.745,3173.729h-2.094a1.522,1.522,0,1,0,0,3.043h2.094a1.522,1.522,0,1,0,0-3.043Z" transform="translate(-504.515 -3138.808)" fill="#3676bc" stroke="#fff" stroke-width="1"/><path d="M599.466,3368.011a5,5,0,1,0,5,5A5.007,5.007,0,0,0,599.466,3368.011Zm0,6.96a1.958,1.958,0,1,1,1.958-1.958A1.96,1.96,0,0,1,599.466,3374.971Z" transform="translate(-563.838 -3315.211)" fill="#3676bc" stroke="#fff" stroke-width="1"/><path d="M683.419,3284.057a5,5,0,1,0,5,5A5.008,5.008,0,0,0,683.419,3284.057Zm0,6.96a1.958,1.958,0,1,1,1.958-1.958A1.961,1.961,0,0,1,683.419,3291.017Z" transform="translate(-640.065 -3238.982)" fill="#3676bc" stroke="#fff" stroke-width="1"/></g></svg>