<svg xmlns="http://www.w3.org/2000/svg" width="60.025" height="62.526" viewBox="0 0 60.025 62.526"><path d="M282.251,358.5h2.5a1.251,1.251,0,1,0,0-2.5h-2.5a1.251,1.251,0,0,0,0,2.5Z" transform="translate(-281 -343.495)" fill="#3676bc"/><path d="M282.251,364.5h2.5a1.251,1.251,0,1,0,0-2.5h-2.5a1.251,1.251,0,1,0,0,2.5Z" transform="translate(-281 -341.992)" fill="#3676bc"/><path d="M282.251,370.5h2.5a1.251,1.251,0,0,0,0-2.5h-2.5a1.251,1.251,0,0,0,0,2.5Z" transform="translate(-281 -340.489)" fill="#3676bc"/><path d="M284.752,374h-2.5a1.251,1.251,0,0,0,0,2.5h2.5a1.251,1.251,0,1,0,0-2.5Z" transform="translate(-281 -338.985)" fill="#3676bc"/><path d="M292.752,386.106V363.25a1.251,1.251,0,0,0-2.5,0v22.856a2.5,2.5,0,1,0,2.5,0Z" transform="translate(-278.996 -341.992)" fill="#3676bc"/><path d="M297.505,384.952V358a5,5,0,1,0-10,0v26.95a7.416,7.416,0,0,0-2.5,5.564,7.5,7.5,0,1,0,15.006,0A7.416,7.416,0,0,0,297.505,384.952Zm-5,10.566a5.007,5.007,0,0,1-5-5,4.957,4.957,0,0,1,2-3.977,1.247,1.247,0,0,0,.5-1V358a2.5,2.5,0,1,1,5,0v27.539a1.247,1.247,0,0,0,.5,1,4.957,4.957,0,0,1,2,3.977A5.007,5.007,0,0,1,292.5,395.518Z" transform="translate(-279.998 -344.246)" fill="#3676bc"/><path d="M328,354.251a1.251,1.251,0,0,0-2.5,0c0,.7-.271,1-.884,1.617a4.352,4.352,0,0,0,0,6.77c.613.613.884.914.884,1.617s-.271,1-.884,1.617A4.457,4.457,0,0,0,323,369.257a1.251,1.251,0,0,0,2.5,0c0-.7.271-1,.884-1.617a4.352,4.352,0,0,0,0-6.77c-.613-.613-.884-.913-.884-1.617s.271-1,.884-1.617A4.457,4.457,0,0,0,328,354.251Z" transform="translate(-270.478 -344.246)" fill="#3676bc"/><path d="M322,354.251a1.251,1.251,0,0,0-2.5,0c0,.7-.271,1-.884,1.617a4.352,4.352,0,0,0,0,6.77c.613.613.884.914.884,1.617s-.271,1-.884,1.617A4.457,4.457,0,0,0,317,369.257a1.251,1.251,0,0,0,2.5,0c0-.7.271-1,.884-1.617a4.352,4.352,0,0,0,0-6.77c-.613-.613-.884-.913-.884-1.617s.271-1,.884-1.617A4.457,4.457,0,0,0,322,354.251Z" transform="translate(-271.981 -344.246)" fill="#3676bc"/><path d="M316,354.251a1.251,1.251,0,1,0-2.5,0c0,.7-.271,1-.884,1.617a4.352,4.352,0,0,0,0,6.77c.613.613.884.914.884,1.617s-.271,1-.884,1.617A4.458,4.458,0,0,0,311,369.257a1.251,1.251,0,1,0,2.5,0c0-.7.271-1,.884-1.617a4.352,4.352,0,0,0,0-6.77c-.613-.613-.884-.913-.884-1.617s.271-1,.884-1.617A4.457,4.457,0,0,0,316,354.251Z" transform="translate(-273.484 -344.246)" fill="#3676bc"/><path d="M335.17,346.261a31.535,31.535,0,0,0-3.938-.261c-24.8,0-27.48,15.9-27.48,22.731a6.316,6.316,0,0,0,.643,2.49c.734,1.761,1.566,3.757-2.944,9.109a4.684,4.684,0,0,0-1.451,3.44,3.929,3.929,0,0,0,2.343,3.573,10.378,10.378,0,0,0,2.741.672,7.421,7.421,0,0,1-.358.807,3.092,3.092,0,0,0-.258,2.485,2.389,2.389,0,0,0,.889,1.137,2.654,2.654,0,0,0-.016,1.2,3.2,3.2,0,0,0,1.564,1.916,3.194,3.194,0,0,1,.586.459,5.925,5.925,0,0,1,.085,2.173c-.038.539-.075,1.124-.075,1.771,0,2.837,2.465,4.818,5.992,4.818,2.131,0,6.92-1.4,9.311-2.137l.978,4.883a1.248,1.248,0,0,0,1.224,1.005,1.2,1.2,0,0,0,.246-.025,1.249,1.249,0,0,0,.98-1.471l-1.251-6.253a1.249,1.249,0,0,0-1.614-.943c-2.076.678-7.9,2.439-9.875,2.439-1.738,0-3.491-.717-3.491-2.317,0-.585.036-1.115.069-1.6a7.778,7.778,0,0,0-.216-3.16,3.575,3.575,0,0,0-1.538-1.7c-.2-.134-.489-.334-.528-.361a.141.141,0,0,1,.034-.153,1.249,1.249,0,0,0-.131-2.192,8.934,8.934,0,0,0-.878-.341.9.9,0,0,1,.136-.475,10.5,10.5,0,0,0,.974-2.862,1.252,1.252,0,0,0-1.169-1.442,12.3,12.3,0,0,1-3.361-.589,1.41,1.41,0,0,1-.894-1.3c0-.805.183-1.023.9-1.871,5.038-5.981,4.438-8.92,3.3-11.641a4.289,4.289,0,0,1-.45-1.527c0-7.556,3.245-20.23,24.979-20.23a29.184,29.184,0,0,1,3.628.241,1.25,1.25,0,1,0,.31-2.481Z" transform="translate(-276.24 -346)" fill="#3676bc"/></svg>