<svg xmlns="http://www.w3.org/2000/svg" width="70.418" height="60.904" viewBox="0 0 70.418 60.904"><path d="M11.972,5.054H.945C.571,4.111.362,3.72-.152,2.667A24.735,24.735,0,0,0-4.363,5.054h-6.154L-9.9-.7h.948A1.352,1.352,0,0,0-7.7-2.066,1.352,1.352,0,0,0-8.947-3.43H-37.113a1.35,1.35,0,0,0-1.242,1.364A1.35,1.35,0,0,0-37.113-.7h.964l.622,5.756H-45.19V-3.914a7.187,7.187,0,0,1,7.181-7.178h42.8a7.187,7.187,0,0,1,7.178,7.178Zm0,10.639a7.188,7.188,0,0,1-7.178,7.181H2.33c-.087-.234-.181-.467-.282-.694a10.23,10.23,0,0,0,1.9-.767C7.829,19.4,9.718,12.944,9.8,12.672l.324-1.134-1.112-.384c-.13-.046-4.945-1.252-6.708-1.1a18.659,18.659,0,0,0-.537-2.573H11.972Zm-15.141.8a2.949,2.949,0,0,1,.182-.821A5.233,5.233,0,0,1-.36,13.114c1.96-1.016,5.247-.5,7.371.046-.74,1.966-2.233,5.024-4.205,6.048a6.858,6.858,0,0,1-2.061.72,12.05,12.05,0,0,0-3.915-3.438m-3.66-5.078c.769-2.21,3.623-4.261,5.5-5.357A19.475,19.475,0,0,1-.163,10.387a6.942,6.942,0,0,0-1.343.521,7.643,7.643,0,0,0-3.8,3.873,5.223,5.223,0,0,0-.218.718h0a11.27,11.27,0,0,0-1.563-.348,5.925,5.925,0,0,1,.263-3.739M-9.178,10.6a9.021,9.021,0,0,0-.5,4.429,11.829,11.829,0,0,0-1.951.282l.844-7.829h3.591A9.1,9.1,0,0,0-9.178,10.6m.23,25.948a9.54,9.54,0,0,1-9.526-9.529,9.537,9.537,0,0,1,9.526-9.526A9.538,9.538,0,0,1,.582,27.015a9.541,9.541,0,0,1-9.529,9.529m-11.174-5.13H-30.2L-33.653-.7h21.261l-1.831,16.928a12.021,12.021,0,0,0-6.735,10.789,11.944,11.944,0,0,0,.836,4.4M-38.01,22.873a7.188,7.188,0,0,1-7.181-7.181V7.478h9.922l1.658,15.4Zm12.032-41.285a2,2,0,0,1,1.887-.98h14.55a2,2,0,0,1,1.885.98L-5.9-13.58h-21.83ZM17.359,5.054h-2.9V-3.914A9.676,9.676,0,0,0,4.793-13.58h-8.05L-5.32-19.261a4.365,4.365,0,0,0-4.221-2.615H-24.09a4.37,4.37,0,0,0-4.224,2.615l-2.063,5.681H-38.01a9.677,9.677,0,0,0-9.666,9.666V5.054h-2.9a1.214,1.214,0,0,0-1.242,1.211,1.215,1.215,0,0,0,1.242,1.213h2.9v8.215a9.677,9.677,0,0,0,9.666,9.665h4.666l.916,8.481h13.6a12,12,0,0,0,9.877,5.19A12.028,12.028,0,0,0,3.066,27.015a12.056,12.056,0,0,0-.114-1.657H4.793a9.676,9.676,0,0,0,9.666-9.665V7.478h2.9a1.212,1.212,0,1,0,0-2.424" transform="translate(51.817 21.876)" fill="#2b79c1"/></svg>